<?xml version="1.0" standalone="no"?>
<!DOCTYPE svg PUBLIC "-//W3C//DTD SVG 1.1//EN" "http://www.w3.org/Graphics/SVG/1.1/DTD/svg11.dtd" >
<svg xmlns="http://www.w3.org/2000/svg" xmlns:xlink="http://www.w3.org/1999/xlink" version="1.1">
<metadata>
Created by FontForge 20180930 at Mon Oct  8 19:11:13 2018
 By root
Copyright (c) 2017 by Vladimir Nikolic. All rights reserved.
</metadata>
<defs>
<font id="Occupied" horiz-adv-x="112" >
  <font-face 
    font-family="Occupied"
    font-weight="400"
    font-stretch="normal"
    units-per-em="1000"
    panose-1="0 0 0 0 0 0 0 0 0 0"
    ascent="750"
    descent="-250"
    x-height="498"
    cap-height="689"
    bbox="-39 -224 1125.46 809"
    underline-thickness="50"
    underline-position="-100"
    unicode-range="U+0020-007A"
  />
    <missing-glyph />
    <glyph glyph-name="space" unicode=" " horiz-adv-x="471" 
 />
    <glyph glyph-name="K" unicode="K" horiz-adv-x="556" 
d="M509 41q5 -5 5.5 -12.5t-4.5 -13.5t-14 -6q-8 0 -12 4l-373 328l-26 -21v-293q0 -8 -5.5 -13t-13.5 -5t-13 5t-5 13v645q0 8 5 13.5t13 5.5q19 0 19 -19v-304l400 319q14 11 26 -3q5 -6 4 -13.5t-7 -12.5l-367 -293l368 -324v0z" />
    <glyph glyph-name="N" unicode="N" horiz-adv-x="629" 
d="M581 17v-1v-1v-1v-1l-1 -1v-1v-1q-1 -1 -1 -2q-1 0 -1 -1v-1q-1 0 -1 -1h-1v-1h-1q0 -1 -1 -1v-1h-1l-1 -1h-1q0 -1 -1 -1h-1h-1v-1h-1h-1h-1h-1h-1h-2h-2h-2v1h-2l-1 1q-1 0 -1 0.5t-1 0.5l-1 1h-1l-1 1q0 1 -1 1v1l-474 602v-268v-323q0 -8 -5 -13t-13 -5t-13.5 5
t-5.5 13v323v322v1v1v1v1q0 1 1 1v1v1v1q1 0 1 1t1 1v1l1 1q0 1 1 1l1 1q0 1 1 1l1 1q1 0 1 1h1h1q0 1 1 1h1l1 1h1h1h1h1h1h1h1h1h1l1 -1h2l1 -1h1l1 -1q1 0 1 -1h1v-1h1v-1q1 0 1 -1l474 -602v590q0 19 19 19q8 0 13 -5.5t5 -13.5v-645z" />
    <glyph glyph-name="n" unicode="n" horiz-adv-x="535" 
d="M492 251v-230q0 -8 -5 -13.5t-13 -5.5q-19 0 -19 19v230l-1 20l-3 20l-4 19l-7 20l-9 18l-11 19l-12 18l-15 16l-16 14l-18 13l-19 11l-19 9l-20 7l-20 4l-20 3l-19 1l-21 -1l-23 -4l-23 -7l-23 -9l-22 -12l-21 -15l-18 -17l-13 -15v-362q0 -8 -5.5 -13.5t-13.5 -5.5
t-13.5 5.5t-5.5 13.5v461q0 8 5.5 13t13.5 5t13.5 -5t5.5 -13v-45l7 6l2 2l22 16q1 0 1 0.5t1 0.5l24 13q1 1 2 1l25 11h2l25 7q1 0 1 0.5t1 0.5l25 4h2l24 1l23 -1l23 -3l23 -5l23 -8q1 0 2 -1l21 -9l2 -1l20 -12l1 -1l20 -14l1 -1l18 -16l1 -1l16 -18q0 -1 0.5 -1t0.5 -1
l14 -19q1 0 1 -1l12 -21l1 -1l10 -21l8 -23l5 -24l3 -23l1 -22v-1z" />
    <glyph glyph-name="O" unicode="O" horiz-adv-x="737" 
d="M367 -1h-1l-29 2l-31 4l-32 7l-32 11l-31 14q-1 0 -2 1l-28 16q-1 1 -2 1l-26 20q-1 0 -1 0.5t-1 0.5l-25 23q-1 0 -1 1l-22 25q-1 0 -1 0.5t-1 0.5l-19 27q-1 1 -1 2l-17 28q0 1 -1 2l-13 29l-11 32l-7 32l-5 31l-1 31l1 30l4 32l8 32l10 31l14 31l1 2l17 28l1 2l19 27
q1 0 1 0.5t1 0.5l22 25q0 1 0.5 1t0.5 1l25 22q1 0 1 0.5t1 0.5l26 20q1 0 2 1l28 16l2 1l29 13l32 11l32 8l31 4l31 2l31 -2l31 -4l32 -7l32 -11q1 0 1 -1l30 -13l30 -17q0 -1 2 -1l26 -20q1 0 1 -0.5t1 -0.5l25 -22q0 -1 0.5 -1t0.5 -1l22 -25q1 0 1 -0.5t1 -0.5l19 -27
q1 -1 1 -2l17 -28q0 -1 1 -2l13 -29l11 -32l7 -32l5 -31l1 -31l-1 -30l-4 -32l-8 -32l-10 -31l-14 -31l-1 -2l-17 -28l-1 -2l-19 -27q-1 0 -1 -0.5t-1 -0.5l-22 -25l-1 -1l-25 -23q-1 0 -1 -0.5t-1 -0.5l-26 -20q-2 0 -2 -1l-28 -16l-2 -1l-30 -13l-31 -11l-32 -8l-31 -4
l-31 -2h-1zM227 71l29 -13l28 -10l29 -6l28 -4l26 -1l28 1l28 4l28 7l29 9l26 13l27 15l25 19l24 21l21 23l18 25l16 27l13 29l9 28l7 28l4 28l1 27l-2 28l-3 28l-7 28l-10 28l-12 27l-16 27l-18 25l-21 23l-24 21l-25 19l-27 16l-27 12l-29 10l-29 6l-28 4l-27 1l-27 -1
l-28 -4l-28 -7l-29 -9l-26 -13l-27 -15l-25 -19l-24 -21l-21 -23l-18 -25l-16 -27l-13 -29l-9 -28l-7 -28l-4 -28l-1 -27l1 -28l4 -28l7 -28l10 -28l12 -27l16 -27l18 -25l21 -23l24 -21l25 -19z" />
    <glyph glyph-name="o" unicode="o" horiz-adv-x="561" 
d="M280 0l-21 1l-23 3l-23 5l-23 8l-23 10q-1 1 -2 1l-20 12q-1 0 -1 0.5t-1 0.5l-19 14l-1 1l-18 16q0 1 -0.5 1t-0.5 1l-16 17l-2 2l-14 19q0 1 -1 1l-11 21l-1 1l-10 21l-8 24l-5 23l-4 23l-1 22l1 23l3 22l6 24l8 23l10 23q0 1 1 1l11 20l1 2l14 19l2 2l16 17q0 1 0.5 1
t0.5 1l18 16l1 1l19 14q1 0 1 0.5t1 0.5l20 12q1 0 2 1l21 9q1 1 2 1l21 7l23 6l23 3l23 1l22 -1l23 -3l23 -5l23 -8q1 0 1 -0.5t1 -0.5l21 -9q1 -1 2 -1l20 -12q1 0 1 -0.5t1 -0.5l19 -14l1 -1l18 -16q0 -1 0.5 -1t0.5 -1l16 -17q1 -1 1 -2l14 -19q1 0 1 -2l12 -20l1 -1
l10 -21l8 -24l5 -23l3 -23l2 -22l-1 -23l-3 -23l-6 -23l-8 -23l-10 -23l-13 -22q0 -1 -1 -1l-14 -19q0 -1 -1 -2l-16 -17q0 -1 -0.5 -1t-0.5 -1l-18 -16l-1 -1l-19 -14q-1 0 -1 -0.5t-1 -0.5l-20 -12q-1 0 -2 -1l-21 -9l-23 -8l-23 -6l-23 -3l-23 -1h-1zM183 61l20 -9l20 -7
l20 -4l19 -3l18 -1l20 1l20 3l20 5l19 7l19 8l18 11l18 13l16 14l15 17l13 17l11 20l9 19l6 20l5 19l2 20l1 19l-1 19l-3 19l-4 20l-7 20l-9 18l-10 19l-13 17l-15 17l-16 14l-18 13l-18 11l-20 9l-20 7l-20 4l-19 3l-19 1l-19 -1l-20 -3l-20 -5l-18 -6l-20 -9l-18 -11
l-18 -13l-16 -14l-15 -17l-13 -17l-11 -19l-9 -20l-6 -20l-5 -19l-2 -20l-1 -19l1 -19l2 -19l5 -20l7 -20l8 -18l11 -19l13 -17l15 -17l16 -14l18 -13z" />
    <glyph glyph-name="G" unicode="G" horiz-adv-x="651" 
d="M611 96l-1 -1q-2 -4 -3 -5q-1 0 -1 -1l-24 -19l-27 -18l-29 -16l-29 -12l-30 -9l-29 -7h-3l-54 -5h-2h-1l-29 1l-31 5l-32 7l-32 11l-31 14l-2 1l-28 16q-1 0 -1 0.5t-1 0.5l-26 20q-1 0 -1 0.5t-1 0.5l-25 22q0 1 -0.5 1t-0.5 1l-22 24l-2 2l-19 27l-1 1l-17 29l-1 1
l-13 30l-11 32l-7 31l-5 32l-1 31l1 30l4 32l8 31l10 32l14 31q1 1 1 2l17 28q0 1 0.5 1t0.5 1l19 27q1 0 1 0.5t1 0.5l22 25l1 1l25 23q1 0 2 1l26 19q1 1 2 1l28 17q1 0 2 1l29 13q1 1 2 1l30 10l32 8l31 4l31 2h3l54 -5h3l28 -7l29 -9l30 -12l28 -15l27 -18l26 -21
q6 -5 7 -12.5t-4 -13.5t-13 -7t-14 4l-24 20l-24 16l-26 13l-26 11l-26 8l-25 6l-52 4l-28 -1l-28 -4l-28 -7l-28 -9l-28 -13l-26 -15l-25 -19l-24 -21l-21 -23l-18 -25l-16 -27l-13 -29l-9 -28l-7 -28l-4 -28l-1 -27l1 -28l4 -28l7 -28l10 -28l12 -27l16 -27l18 -25l21 -23
l24 -22l25 -18l26 -16l29 -13l28 -9l29 -7l28 -3l26 -1l52 4l27 6l26 8l26 11l25 14l25 16l15 13v191h-196q-8 0 -13.5 5.5t-5.5 13.5t5.5 13.5t13.5 5.5h215q8 0 13.5 -5.5t5.5 -13.5v-219q0 -3 -1 -4v-2q0 -1 -1 -1v-1v0z" />
    <glyph glyph-name="g" unicode="g" horiz-adv-x="566" 
d="M525 21v-1v-1l-1 -16q0 -1 -1 -2l-3 -17v-2l-5 -17q0 -2 -1 -3l-7 -17l-1 -2l-10 -16q0 -2 -1 -2l-12 -16q0 -1 -1 -2l-14 -15q0 -1 -0.5 -1t-0.5 -1l-16 -14q-1 0 -1 -0.5t-1 -0.5l-17 -13l-21 -12l-22 -10l-22 -8q-1 -1 -3 -1l-42 -10h-3l-42 -3q-1 0 -1 -0.5t-1 -0.5
l-1 1l-30 2h-3l-31 6q-1 0 -1 0.5t-1 0.5l-31 11q-1 0 -1.5 0.5t-1.5 0.5l-30 16q-2 0 -2 2l-28 20l-2 2l-25 24q0 1 -0.5 1.5t-0.5 1.5l-21 27q0 1 -0.5 1.5t-0.5 1.5l-16 30q-4 7 -2 14t10 11q7 4 14 1.5t11 -9.5l15 -29l19 -25l22 -23l26 -19l27 -14l29 -10l29 -6l27 -2
l40 3l40 9l20 7l19 9l17 11l16 11l14 13l13 14l10 14l9 15l6 15l5 15l2 15l1 15v99l-2 -5q-1 0 -1 -0.5t-1 -0.5l-14 -19q0 -1 -1 -2l-16 -18l-1 -1l-18 -16l-1 -1l-19 -14q-1 0 -1 -0.5t-1 -0.5l-20 -12q-1 0 -1 -0.5t-1 -0.5l-21 -9l-23 -8l-23 -6l-23 -3l-23 -1h-1l-21 1
l-23 3l-23 5l-23 8l-23 10q-1 0 -1 0.5t-1 0.5l-20 12q-1 0 -1 0.5t-1 0.5l-19 14l-1 1l-18 16q0 1 -1 1l-16 18l-2 2l-13 19q-1 0 -1 0.5t-1 0.5l-11 21q-1 0 -1 1l-10 21l-8 23l-5 24l-4 23l-1 22l1 22l3 23l6 24l8 23l10 22q0 2 1 2l11 20l2 2l13 19l2 2l16 17q0 1 0.5 1
t0.5 1l18 16l1 1l19 14q1 0 1 0.5t1 0.5l20 12q1 0 2 1l21 9l2 1l21 7l23 6l23 3l23 1l22 -1l23 -3l23 -5l23 -8q1 0 2 -1l21 -9l22 -13q1 0 1 -0.5t1 -0.5l19 -14l1 -1l18 -16q0 -1 0.5 -1t0.5 -1l16 -17q1 -1 1 -2l14 -19q1 0 1 -2l3 -4v99q0 8 5.5 13.5t13.5 5.5
t13.5 -5.5t5.5 -13.5v-460zM487 251v1l-1 19l-3 19l-4 20l-7 20l-9 18l-10 19l-13 17l-15 17l-16 14l-18 13l-19 11l-19 9l-20 7l-20 4l-19 3l-19 1l-19 -1l-20 -3l-20 -5l-18 -6l-20 -9l-18 -11l-18 -13l-16 -14l-15 -17l-13 -17l-10 -19l-10 -20l-6 -20l-5 -19l-2 -20
l-1 -19l1 -19l3 -19l4 -20l7 -20l8 -18l11 -19l13 -17l15 -17l16 -14l18 -13l18 -11l20 -9l20 -7l20 -4l19 -3l18 -1l20 1l20 3l20 5l19 6l19 9l18 11l18 13l16 14l15 17l13 17l10 19l10 20l6 20l5 19l2 20z" />
    <glyph glyph-name="H" unicode="H" horiz-adv-x="594" 
d="M526 686q8 0 13.5 -5.5t5.5 -13.5v-645q0 -8 -5.5 -13.5t-13.5 -5.5t-13.5 5.5t-5.5 13.5v304h-420v-304q0 -8 -5.5 -13.5t-13.5 -5.5q-19 0 -19 19v322v323q0 8 5.5 13.5t13.5 5.5t13.5 -5.5t5.5 -13.5v-304h420v304q0 8 5.5 13.5t13.5 5.5z" />
    <glyph glyph-name="h" unicode="h" horiz-adv-x="540" 
d="M501 19q0 -8 -5 -13.5t-13 -5.5q-19 0 -19 19v230l-1 20l-3 19l-5 20l-6 19l-9 19l-11 19l-12 17l-15 17l-16 14l-18 13l-19 11l-19 9l-20 7l-20 4l-20 3l-18 1h-165v-442q0 -8 -5.5 -13.5t-13.5 -5.5t-13.5 5.5t-5.5 13.5v645q0 8 5.5 13t13.5 5t13.5 -5t5.5 -13v-166
h164h2l21 -1l23 -3l23 -5l23 -8q1 0 2 -1l21 -9q0 -1 1 -1l21 -12l1 -1l19 -14q1 0 1 -0.5t1 -0.5l18 -16q0 -1 1 -1l16 -18q0 -1 0.5 -1t0.5 -1l14 -19q1 0 1 -1l12 -21l1 -1l9 -21q1 -1 1 -2l7 -22l6 -23l3 -23l1 -22v-1v-230z" />
    <glyph glyph-name="I" unicode="I" 
d="M58 7q-8 0 -13.5 5.5t-5.5 13.5v645q0 8 5.5 13t13.5 5t13.5 -5t5.5 -13v-645q0 -8 -5.5 -13.5t-13.5 -5.5z" />
    <glyph glyph-name="i" unicode="i" horiz-adv-x="156" 
d="M76 491q8 0 13.5 -5.5t5.5 -13.5v-449q0 -8 -5.5 -13t-13.5 -5t-13.5 5t-5.5 13v449q0 19 19 19zM50 565q0 10 6.5 16.5t16.5 6.5t17 -6.5t7 -16.5t-7 -16t-17 -6t-16.5 6t-6.5 16z" />
    <glyph glyph-name="J" unicode="J" horiz-adv-x="379" 
d="M339 162q0 -1 -1 -1h1l-1 -13l-2 -14l-3 -15l-5 -14q0 -1 -1 -2l-6 -13v-1l-8 -13l-1 -1l-8 -12l-1 -1l-10 -11l-1 -1l-11 -10l-1 -1l-12 -8q0 -1 -1 -1l-13 -7q0 -1 -1 -1l-13 -6l-14 -5l-15 -4l-14 -2h-15h-14l-14 2l-15 3l-14 5q-1 0 -2 1l-13 6l-14 8l-1 1l-12 8
l-1 1l-11 10l-1 1l-10 11l-1 1l-8 12q-1 0 -1 1l-7 13l-7 14l-5 14l-4 15l-2 15v14q-1 8 4 13.5t13 5.5q8 1 14 -4.5t6 -13.5l1 -12l1 -11l3 -11l4 -11l5 -11l6 -10l7 -10l8 -9l9 -8l10 -7l12 -7l10 -5l12 -4l11 -2l11 -2h10l11 1l11 1l11 3l11 4l10 4l11 7l10 7l9 8l8 9
l8 10l6 11l5 11l4 11l2 12l2 11v10v506q0 19 19 19q8 0 13.5 -5.5t5.5 -13.5v-506z" />
    <glyph glyph-name="j" unicode="j" horiz-adv-x="144" 
d="M91 -63v-1v-1l-2 -17l-2 -10l-4 -11v-1l-4 -9l-6 -10l-1 -1l-5 -8q-1 0 -1 -0.5t-1 -0.5l-6 -7l-8 -8q-1 -1 -2 -1l-8 -6l-9 -6q-1 0 -2 -1l-8 -3l-11 -4l-10 -3h-2l-18 -2h-1q-8 0 -13 5t-6 13q0 8 5 13.5t13 6.5l14 1l15 4l13 7l12 10l8 11l7 13l4 15l1 13v552
q0 8 5.5 13.5t13.5 5.5q19 0 19 -19v-553zM46 576q0 10 6.5 16.5t16.5 6.5t17 -6.5t7 -16.5t-7 -16t-17 -6t-16.5 6t-6.5 16z" />
    <glyph glyph-name="k" unicode="k" horiz-adv-x="489" 
d="M448 35q6 -5 6.5 -13t-4.5 -14t-14 -6q-8 0 -12 4l-286 238l-52 -44v-180q0 -8 -5.5 -13t-13.5 -5t-13 5t-5 13v189v456q0 8 5 13.5t13 5.5q19 0 19 -19v-416l292 246q14 12 26 -2q5 -6 4.5 -13.5t-6.5 -12.5l-235 -198l281 -234v0z" />
    <glyph glyph-name="P" unicode="P" horiz-adv-x="496" 
d="M457 432l-1 -23l-3 -23l-6 -23l-8 -23l-10 -23l-1 -1l-11 -21q-1 0 -1 -0.5t-1 -0.5l-13 -19l-2 -2l-16 -18l-1 -1l-18 -16l-1 -1l-19 -14l-22 -13q-1 0 -1 -0.5t-1 -0.5l-21 -9l-23 -8l-23 -6l-23 -3l-23 -1h-1h-119v-166q0 -8 -5.5 -13t-13.5 -5t-13 5t-5 13v645
q0 8 5 13.5t13 5.5h138h1l21 -1l23 -3l23 -5l23 -8l23 -10q1 -1 2 -1l20 -12q1 0 1 -0.5t1 -0.5l19 -14l1 -1l18 -16q0 -1 0.5 -1t0.5 -1l16 -17l2 -2l13 -19l2 -2l11 -20q1 0 1 -1l10 -22l8 -23l5 -23l4 -23zM419 432l-1 19l-3 19l-4 20l-7 20l-9 18l-10 19l-13 17l-15 17
l-16 14l-18 13l-18 11l-20 9l-20 7l-20 4l-19 3l-19 1h-119v-424h119l20 1l20 3l20 5l19 6l19 9l19 11l17 13l16 14l15 17l13 17l10 19l10 20l6 20l5 19l2 20z" />
    <glyph glyph-name="p" unicode="p" horiz-adv-x="576" 
d="M540 257l-1 -23l-3 -23l-5 -23l-8 -23l-10 -23l-1 -1l-12 -21l-1 -1l-14 -19q0 -1 -0.5 -1t-0.5 -1l-16 -18l-1 -1l-18 -16l-1 -1l-20 -14l-1 -1l-20 -12q-1 0 -2 -1l-21 -9l-23 -8l-23 -6l-23 -3l-23 -1h-1h-1l-20 1l-23 3l-23 5l-24 8l-22 10q-1 0 -1 0.5t-1 0.5
l-20 12q-1 0 -1 0.5t-1 0.5l-19 14q-1 0 -1 0.5t-1 0.5l-17 16q-1 1 -2 1l-16 18q0 1 -1 2l-14 19l-1 1l-2 5v-330q0 -8 -5.5 -13.5t-13.5 -5.5t-13.5 5.5t-5.5 13.5v691q0 8 5.5 13.5t13.5 5.5t13.5 -5.5t5.5 -13.5v-99l2 4q1 1 1 2l14 19q1 1 1 2l16 17l2 2l18 16l1 1
l19 14q1 0 1 0.5t1 0.5l20 12q1 0 2 1l21 9l1 1l22 7l23 6l23 3l22 1l23 -1l23 -3l23 -5l23 -8q1 0 1 -0.5t1 -0.5l21 -9q0 -1 2 -1l20 -12l1 -1l20 -14l1 -1l18 -16q0 -1 0.5 -1t0.5 -1l16 -17q0 -1 0.5 -1t0.5 -1l14 -19q1 -1 1 -2l12 -20l1 -2l10 -21l7 -23l6 -23l3 -23z
M503 257l-1 19l-3 19l-5 20l-6 20l-9 18l-11 19l-12 17l-15 17l-16 14l-18 13l-19 11l-19 9l-20 7l-20 4l-20 3l-19 1l-19 -1l-19 -3l-20 -5l-19 -6l-19 -9l-19 -11l-17 -13l-16 -14l-15 -17l-13 -17l-11 -19l-9 -20l-6 -20l-5 -19l-3 -20v-18v-1l1 -19l2 -19l5 -20l7 -20
l8 -18l11 -19l13 -17l15 -17l16 -14l17 -13l19 -11l20 -9l20 -7l20 -4l19 -3l18 -1l20 1l20 3l19 5l20 6l18 9l19 11l18 13l16 14l15 17l12 17l11 19l9 20l7 20l5 19l2 20z" />
    <glyph glyph-name="c" unicode="c" horiz-adv-x="521" 
d="M281 1l-23 1l-23 3l-23 5l-23 8l-23 10q-1 1 -2 1l-20 12q-1 0 -1 1l-20 14q-1 0 -1 1l-18 16l-1 1l-16 18l-1 1l-14 20l-1 1l-12 20l-1 2l-10 21l-8 23l-5 24l-3 22l-1 23l1 22l3 23l5 23l8 24l10 22q0 1 0.5 1t0.5 1l12 20q0 1 1 2l14 19l1 1l16 18q0 1 0.5 1t0.5 1
l18 15q0 1 0.5 1t0.5 1l20 14q1 0 1 1l20 11l2 1l21 10q1 0 2 1l21 7l24 5l22 4l23 1l26 -1q1 -1 2 -1l25 -4h2l25 -7l2 -1l25 -10q1 0 1 -0.5t1 -0.5l24 -13q1 -1 2 -1l22 -17l2 -1l21 -19q0 -1 0.5 -1t0.5 -1l18 -21q5 -6 4.5 -13.5t-6.5 -12.5t-13.5 -4.5t-12.5 6.5
l-18 20l-18 18l-21 14l-22 13l-23 9l-23 6l-23 4l-23 1l-19 -1l-20 -2l-19 -5l-19 -7l-19 -8l-19 -11l-18 -13l-16 -15l-15 -16l-12 -18l-11 -18l-9 -20l-7 -20l-5 -20l-2 -19l-1 -19l1 -19l3 -20l4 -19l7 -20l9 -18l11 -19l12 -18l15 -16l16 -15l18 -12l19 -11l20 -9l19 -7
l20 -5l20 -2l19 -1l21 1l23 4l23 6l23 10l22 12l21 15l18 17l18 21q5 6 12.5 6.5t13.5 -4.5t6.5 -13t-4.5 -14l-18 -21q-1 -1 -1 -2l-21 -18l-2 -2l-22 -16q-1 -1 -2 -1l-24 -14q-1 0 -2 -1l-25 -10h-2l-25 -7q-1 -1 -2 -1l-25 -4h-2z" />
    <glyph glyph-name="C" unicode="C" horiz-adv-x="630" 
d="M368 2l-29 1l-32 4l-32 7l-31 11l-31 14l-2 1l-29 17q-1 0 -1 1l-27 19l-1 1l-25 23q-1 0 -1 0.5t-1 0.5l-22 25l-1 1l-20 27q0 1 -1 2l-16 28q-1 1 -1 2l-14 29l-10 32l-8 32l-4 31l-2 31l1 31l5 31l7 32l11 32l14 31q0 1 1 1l16 29l1 1l20 27q0 1 0.5 1t0.5 1l22 24
l2 2l25 22l1 1l27 20l1 1l29 16q0 1 2 1l29 14h2l30 11l31 7l32 5l31 1h2l55 -5h2l28 -6l30 -9l29 -13l28 -15l28 -18l25 -20q6 -5 7 -13t-4 -14q-12 -14 -26 -2l-24 19l-25 16l-25 14l-26 10l-27 9l-25 5l-52 5l-28 -2l-28 -4l-28 -6l-27 -10l-28 -12l-27 -16l-25 -18
l-23 -21l-21 -24l-19 -25l-15 -27l-13 -28l-10 -29l-6 -28l-4 -28l-1 -27l1 -27l4 -28l7 -29l9 -28l13 -27l15 -26l19 -26l21 -23l23 -21l25 -18l27 -16l28 -13l29 -10l28 -6l28 -4l26 -1l52 4l27 6l26 9l27 11l25 13l24 16l23 19q14 11 26 -3q5 -6 4 -13.5t-7 -12.5
l-24 -20l-27 -18l-28 -15l-30 -12l-29 -10l-30 -6l-2 -1l-55 -4h-2z" />
    <glyph glyph-name="D" unicode="D" horiz-adv-x="655" 
d="M615 344l-1 -30l-4 -32l-8 -32l-10 -31l-15 -32v-1l-17 -29l-1 -1l-20 -27l-1 -1l-22 -25q-1 -1 -1 -2l-25 -22q-1 0 -1 -0.5t-1 -0.5l-27 -20l-1 -1l-29 -16q0 -1 -1 -1l-30 -14l-31 -10l-32 -8l-32 -4l-30 -2h-1h-215q-8 0 -13.5 5.5t-5.5 13.5v645q0 8 5.5 13.5
t13.5 5.5h215h1l29 -2l31 -4l32 -7l32 -11l31 -14l1 -1l29 -16q0 -1 0.5 -1t0.5 -1l27 -19q1 0 1 -0.5t1 -0.5l25 -23l1 -1l22 -25q1 0 1 -1l20 -27q0 -1 0.5 -1t0.5 -1l17 -28v-2l14 -29l11 -32l7 -32l5 -31zM578 344l-2 27l-4 29l-6 28l-10 28l-12 27l-16 27l-18 25
l-21 23l-24 21l-25 19l-27 15l-28 13l-28 10l-29 6l-28 4l-27 1h-195v-607h195l29 1l28 4l28 7l29 9l26 13l27 15l25 19l24 21l21 23l18 25l16 27l13 28l9 29l7 28l4 28z" />
    <glyph glyph-name="d" unicode="d" horiz-adv-x="581" 
d="M507 686q8 0 13.5 -5.5t5.5 -13.5v-645q0 -8 -5.5 -13.5t-13.5 -5.5t-13.5 5.5t-5.5 13.5v100l-2 -5q-1 0 -1 -2l-14 -19q-1 0 -1 -0.5t-1 -0.5l-16 -18l-1 -1l-18 -16q0 -1 -1 -1l-19 -14q-1 -1 -2 -1l-20 -12q-1 -1 -2 -1l-21 -10l-23 -8l-23 -5l-23 -3l-22 -2h-1h-1
l-21 1l-23 3l-23 6l-23 8l-23 10l-2 1l-20 12l-1 1l-20 14l-1 1l-18 16l-1 1l-16 18q-1 0 -1 1l-14 19q-1 1 -1 2l-12 20l-11 23l-8 23l-5 23l-3 23l-1 23l1 22l3 23l5 23l8 23l10 23q0 1 0.5 1t0.5 1l12 20q0 1 1 2l14 19l1 1l16 18q0 1 1 1l18 16q0 1 0.5 1t0.5 1l20 14
l1 1l20 11q1 1 2 1l21 10q1 0 2 1l21 7l23 5l23 4l23 1l22 -1l23 -3l23 -6l23 -7q1 -1 2 -1l21 -10q1 0 2 -1l20 -11q1 -1 2 -1l19 -14q0 -1 0.5 -1t0.5 -1l18 -16q1 0 1 -1l16 -18q1 0 1 -0.5t1 -0.5l14 -19q0 -1 1 -2l2 -4v283q0 8 5.5 13.5t13.5 5.5zM488 254l-1 18
l-2 20l-5 20l-7 19l-8 19l-11 18l-13 18l-15 16l-16 15l-18 13l-18 11l-19 8l-21 7l-20 5l-19 2l-19 1l-19 -1l-20 -2l-19 -5l-19 -7l-20 -8l-18 -11l-18 -13l-16 -15l-15 -16l-12 -18l-11 -18l-9 -20l-7 -20l-5 -20l-2 -19l-1 -19l1 -19l3 -20l4 -20l7 -19l9 -19l11 -18
l12 -18l15 -16l16 -15l18 -13l18 -10l21 -10l19 -6l20 -5l20 -2l18 -1l20 1l19 3l20 4l19 7l19 9l18 10l18 13l16 15l15 16l13 18l11 18l9 21l6 19l5 20l3 19v19v1z" />
    <glyph glyph-name="q" unicode="q" horiz-adv-x="577" 
d="M532 255l-1 -22l-3 -23l-6 -23l-8 -24l-10 -22l-12 -22l-2 -2l-13 -19q-1 -1 -2 -1l-13 -15l45 -45q6 -5 6 -13t-6 -13q-5 -6 -13 -6t-13 6l-47 46l-14 -11q-1 0 -2 -1l-20 -12h-2l-21 -10l-23 -8l-23 -5l-23 -4l-23 -1h-1l-21 1l-23 3l-23 6l-23 7l-23 11h-2l-20 12
q-1 1 -2 1l-19 14q0 1 -0.5 1t-0.5 1l-18 15q0 1 -0.5 1t-0.5 1l-16 18q-1 0 -1 1l-14 19l-2 2l-11 20q-1 1 -1 2l-10 21l-8 23l-5 23l-3 23l-2 22l1 23l3 23l6 23l8 23l10 23l1 2l12 20l1 1l14 20l1 1l16 18l1 1l18 16l1 1l19 14q1 1 2 1l20 12q1 0 1 0.5t1 0.5l21 10h2
l21 8l23 5l23 3l23 1l22 -1l23 -3l23 -5l23 -8h2l21 -10q1 0 1 -0.5t1 -0.5l20 -12q1 0 2 -1l19 -14l1 -1l18 -16l1 -1l16 -18q1 0 1 -0.5t1 -0.5l13 -20q1 0 1 -0.5t1 -0.5l11 -20q1 -1 1 -2l10 -21l8 -23l5 -24l4 -22zM494 255l-1 19l-3 20l-4 19l-7 20l-8 18l-11 19
l-13 18l-15 16l-16 15l-18 12l-18 11l-20 9l-20 7l-20 5l-19 2l-19 1l-19 -1l-20 -3l-20 -4l-18 -7l-20 -9l-18 -11l-18 -12l-16 -15l-15 -16l-13 -18l-10 -19l-10 -20l-6 -19l-5 -20l-2 -20l-1 -19l1 -19l3 -19l4 -20l7 -19l9 -19l10 -19l13 -17l15 -16l16 -15l18 -13
l18 -11l20 -9l20 -6l20 -5l19 -3h19l19 1l20 2l20 5l19 7l19 8l18 11l9 7l-112 112q-5 5 -5 13t5 13q6 6 14 6t13 -6l114 -113l11 12l13 17l11 20l9 19l6 20l5 20l2 19z" />
    <glyph glyph-name="Q" unicode="Q" horiz-adv-x="734" 
d="M703 342l-1 -31l-4 -31l-8 -32l-10 -32l-14 -31q-1 -1 -1 -2l-17 -28q0 -1 -0.5 -1t-0.5 -1l-20 -27l-1 -1l-16 -18l75 -75q5 -6 5 -14t-5 -13t-13 -5t-14 5l-75 76l-5 -5q-1 0 -2 -1l-27 -19q0 -1 -1 -1l-28 -17q-1 0 -2 -1l-30 -13l-31 -11l-32 -8l-32 -4l-30 -1h-1h-1
l-29 1l-31 4l-32 7l-32 11l-31 14q-1 0 -1 0.5t-1 0.5l-28 17q-1 0 -2 1l-26 19q-1 1 -2 1l-25 23l-1 1l-22 25q-1 0 -1 0.5t-1 0.5l-19 27q-1 1 -1 2l-17 28q0 1 -1 2l-13 29l-11 32l-7 32l-5 31l-1 31l1 31l4 31l8 32l10 32l14 31q1 0 1 1l17 29l1 1l19 27l2 2l22 24
q0 1 0.5 1t0.5 1l25 22q1 1 2 1l26 20q1 0 1 0.5t1 0.5l28 16q1 1 2 1l29 14h2l30 11l32 7l31 5l31 1l31 -1l31 -5l32 -7l32 -11h1l30 -14l30 -17l1 -1l27 -20q1 0 2 -1l25 -22q0 -1 0.5 -1t0.5 -1l22 -24q1 -1 1 -2l20 -27l1 -1l17 -29l1 -1l13 -30l11 -31l7 -32l5 -32z
M666 342l-2 27l-3 28l-7 28l-10 28l-12 27l-16 27l-18 25l-21 24l-24 21l-25 18l-27 16l-27 12l-29 10l-29 7l-28 3l-27 2l-27 -2l-28 -4l-29 -6l-27 -10l-28 -12l-26 -16l-26 -18l-23 -21l-21 -24l-18 -25l-16 -27l-13 -28l-9 -29l-7 -28l-4 -28l-1 -27l1 -27l4 -28l7 -29
l10 -28l12 -27l16 -26l18 -26l21 -23l23 -21l26 -18l26 -16l29 -13l28 -10l29 -6l27 -4l27 -1l28 1l28 4l28 7l29 10l26 12l27 16l25 18l3 2l-83 83q-12 13 0 27q5 5 13 5t14 -5l83 -84l15 16l18 26l16 26l13 29l9 28l7 28l4 28z" />
    <glyph glyph-name="A" unicode="A" horiz-adv-x="711" 
d="M694 27q3 -8 0.5 -15t-9.5 -10q-7 -4 -14 -1.5t-11 9.5l-87 174h-438l-86 -174q-6 -10 -17 -10q-6 0 -9 2q-7 3 -9.5 10t1.5 15l323 645q5 10 16 10q12 0 17 -10l230 -460v-1zM554 221l-200 400l-200 -400h400z" />
    <glyph glyph-name="a" unicode="a" horiz-adv-x="565" 
d="M503 498q8 0 13.5 -5.5t5.5 -13.5v-461q0 -8 -5.5 -13t-13.5 -5t-13.5 5t-5.5 13v100l-3 -5l-1 -1l-14 -20l-1 -1l-16 -18l-1 -1l-18 -16q0 -1 -1 -1l-19 -14q-1 -1 -2 -1l-20 -12q-1 0 -1 -0.5t-1 -0.5l-21 -10l-23 -8l-23 -5l-23 -3l-23 -1h-1h-21l-23 4l-23 5l-23 8
l-23 10q-1 0 -1 0.5t-1 0.5l-20 12q-1 0 -2 1l-19 14l-1 1l-18 16l-1 1l-16 18q-1 0 -1 0.5t-1 0.5l-14 20l-1 1l-11 20l-11 23l-8 23l-5 23l-4 23l-1 23l1 22l3 23l6 23l7 24l11 22q0 1 1 2l11 20q1 1 1 2l14 19q1 0 1 0.5t1 0.5l16 18q0 1 0.5 1t0.5 1l18 15q0 1 0.5 1
t0.5 1l19 14q1 0 2 1l20 11q1 1 2 1l21 10l2 1l21 7l23 5l23 4l23 1l22 -1l23 -3l23 -6l23 -7q1 -1 2 -1l21 -10q1 0 2 -1l20 -11q0 -1 2 -1l19 -14q0 -1 0.5 -1t0.5 -1l18 -15q0 -1 0.5 -1t0.5 -1l16 -18q1 0 1 -1l14 -19q1 -1 1 -2l3 -4v99q0 8 5.5 13.5t13.5 5.5z
M484 249v1l-1 19l-3 19l-4 20l-7 19l-9 19l-10 18l-13 18l-15 16l-16 15l-18 13l-18 11l-20 8l-20 7l-20 5l-19 3h-19l-19 -1l-20 -2l-20 -5l-18 -7l-20 -8l-18 -11l-18 -13l-16 -15l-15 -16l-13 -18l-11 -18l-9 -20l-6 -20l-5 -20l-2 -19l-1 -19l1 -19l2 -20l5 -19l7 -20
l9 -19l10 -18l13 -18l15 -16l16 -15l18 -12l18 -11l20 -9l20 -7l20 -5l19 -2l18 -1l20 1l20 3l19 4l20 7l19 9l18 11l18 12l16 15l15 16l13 18l11 19l9 20l6 19l5 20l2 20z" />
    <glyph glyph-name="B" unicode="B" horiz-adv-x="573" 
d="M543 206l-1 -18l-2 -19l-4 -18l-7 -19v-2l-8 -17l-10 -18q-1 0 -1 -1l-12 -16l-1 -1l-13 -14q0 -1 -1 -2l-14 -12l-2 -2l-15 -11l-2 -1l-16 -9q0 -1 -1 -1l-17 -8l-19 -6l-19 -5l-19 -3h-18h-1h-276q-8 0 -13.5 5t-5.5 13v645q0 19 19 19h230h1l12 -1l15 -1l14 -4l15 -5
l14 -6l14 -8q1 0 1 -0.5t1 -0.5l11 -8l2 -2l10 -9l2 -2l9 -10l2 -2l8 -11q0 -1 0.5 -1t0.5 -1l7 -12l1 -2l6 -12v-2l5 -13l3 -14l2 -15l1 -14l-1 -14l-1 -15l-4 -14l-5 -15v-2l-6 -12l-8 -14q0 -1 -0.5 -1t-0.5 -1l-8 -11l-2 -2l-9 -10l-2 -2l-10 -9q-1 -1 -2 -1l-4 -3l7 -2
l19 -6l19 -9l1 -1l16 -9q1 0 2 -1l15 -11q1 -1 2 -1l14 -13q1 -1 1 -2l13 -14q1 0 1 -1l12 -16l1 -1l9 -16l9 -19v-2l6 -17l5 -19l2 -18zM315 646l-11 1l-10 1h-212v-239h212h12l11 2l11 2l11 4l10 5l10 6l10 7l10 9l8 9l7 10l7 11l4 10l4 12l3 11l1 11l1 11l-1 11l-2 11
l-2 11l-4 10l-5 11l-6 10l-7 10l-8 10l-10 8l-10 7l-11 7l-11 5l-11 3zM506 206l-1 15l-2 16l-4 15l-5 14l-7 16l-8 14l-10 14l-12 13l-13 11l-13 10l-15 9l-16 7l-15 5l-16 4l-15 2h-14h-258v-331h258l16 1l15 2l16 4l15 5l14 6l15 9l13 10l13 12l12 12l10 14l9 15l6 15
l6 16l3 15l2 16z" />
    <glyph glyph-name="b" unicode="b" horiz-adv-x="569" 
d="M540 249l-1 -22l-3 -23l-5 -24l-8 -23l-10 -22q0 -1 -1 -2l-12 -20q0 -1 -1 -2l-14 -19q0 -1 -0.5 -1t-0.5 -1l-16 -17q0 -1 -0.5 -1t-0.5 -1l-18 -16q-1 0 -1 -0.5t-1 -0.5l-19 -14l-1 -1l-21 -12l-1 -1l-21 -9l-23 -8l-24 -6l-23 -3l-22 -1h-1h-1l-20 1l-23 3l-24 5
l-23 8l-22 10q-1 1 -2 1l-20 12q-1 0 -1 0.5t-1 0.5l-19 14q-1 0 -1 0.5t-1 0.5l-17 16l-2 2l-16 17q0 1 -1 2l-14 19l-1 2l-3 4v-99q0 -8 -5 -13.5t-13 -5.5q-19 0 -19 19v645q0 8 5.5 13t13.5 5t13 -5t5 -13v-284l3 5l1 1l14 19q1 1 1 2l16 18q1 0 2 1l17 16q1 0 1 0.5
t1 0.5l19 14q1 0 1 0.5t1 0.5l20 12l2 1l21 9q0 1 1 1l22 7l23 6l23 3l22 1l23 -1l23 -3l23 -5l23 -8q1 0 2 -1l21 -9q0 -1 1 -1l21 -12l1 -1l19 -14q1 0 1 -0.5t1 -0.5l18 -16q0 -1 1 -1l16 -18q0 -1 0.5 -1t0.5 -1l14 -19l1 -1l12 -21l1 -1l9 -21l8 -23l6 -24l3 -23z
M503 249l-1 19l-3 19l-5 20l-6 20l-9 18l-11 19l-13 17l-14 17l-16 14l-18 13l-19 11l-19 9l-21 7l-19 4l-20 3l-19 1l-19 -1l-19 -3l-20 -5l-19 -6l-19 -9l-19 -11l-17 -13l-17 -14l-14 -17l-13 -17l-11 -19l-9 -19l-7 -21l-4 -19l-3 -20l-1 -18v-1l1 -19l3 -19l5 -20
l6 -19l10 -20l10 -18l13 -17l14 -17l17 -14l17 -13l19 -11l20 -9l20 -7l20 -4l19 -3l18 -1l20 1l19 3l20 5l20 7l18 8l19 11l17 13l17 14l14 17l13 17l11 19l9 20l7 20l4 19l3 20z" />
    <glyph glyph-name="E" unicode="E" horiz-adv-x="535" 
d="M484 46q8 0 13.5 -5t5.5 -13q0 -19 -19 -19h-414q-19 0 -19 19v645q0 8 5.5 13t13.5 5h414q8 0 13.5 -5t5.5 -13q0 -19 -19 -19h-396v-285h350q8 0 13.5 -5.5t5.5 -13.5t-5.5 -13.5t-13.5 -5.5h-350v-285h396v0z" />
    <glyph glyph-name="F" unicode="F" horiz-adv-x="500" 
d="M437 365q8 0 13.5 -5.5t5.5 -13.5t-5.5 -13t-13.5 -5h-352v-304q0 -8 -5.5 -13.5t-13.5 -5.5t-13.5 5.5t-5.5 13.5v322v323q0 8 5.5 13.5t13.5 5.5h368q8 0 13.5 -5.5t5.5 -13.5q0 -19 -19 -19h-349v-285h352v0z" />
    <glyph glyph-name="e" unicode="e" horiz-adv-x="575" 
d="M530 239q-1 0 -1 -1h-1v-1h-1q0 -1 -1 -1h-1q0 -1 -1 -1l-1 -1h-1h-1h-1l-1 -1h-2h-1h-441v-1l3 -19l5 -20l6 -20l9 -19l11 -18l12 -17l15 -17l16 -14l18 -13l19 -11l20 -9l19 -7l20 -4l20 -3l19 -1l21 1l23 4l23 7l23 9l22 12l21 15l18 17l18 21q5 6 12.5 6.5t13.5 -4.5
t6.5 -13t-4.5 -13l-18 -22l-1 -1l-21 -19l-2 -2l-22 -16q-1 0 -1 -0.5t-1 -0.5l-24 -13q-1 -1 -2 -1l-25 -10q0 -1 -2 -1l-25 -7q-1 0 -1 -0.5t-1 -0.5l-25 -4h-2l-24 -1l-23 1l-23 3l-23 5l-23 8l-23 10l-1 1l-21 12l-1 1l-19 14q-1 0 -2 1l-18 16q0 1 -1 1l-16 18
q0 1 -0.5 1t-0.5 1l-14 19q-1 0 -1 1l-12 21l-11 22l-7 23l-6 24l-3 23l-1 22v1v2l1 19l3 23l5 24l8 23l10 22q0 1 1 2l12 20q0 1 1 2l14 19q0 1 0.5 1t0.5 1l16 17q0 1 0.5 1t0.5 1l18 16l2 1l19 14l1 1l20 12q2 0 2 1l21 9q1 0 1 0.5t1 0.5l21 7l24 6l22 3l23 1l22 -1
l23 -3l23 -5l24 -8l1 -1l21 -9l22 -13q1 0 1 -0.5t1 -0.5l19 -14l1 -1l18 -16l2 -2l16 -17q0 -1 1 -2l14 -19q0 -1 1 -2l12 -20v-2l10 -21l8 -23l6 -23l3 -23l1 -22v-1v-1v-1v-1l-1 -1v-1v-1v-1q-1 0 -1 -1v-1l-1 -1l-1 -1v-1h-1v-1zM75 271h422l-1 1l-2 19l-5 20l-7 20
l-8 18l-11 19l-13 17l-15 17l-16 14l-17 13l-20 11l-18 9l-21 7l-20 4l-19 3l-19 1l-19 -1l-20 -3l-19 -5l-19 -6l-19 -9l-19 -11l-18 -13l-16 -14l-15 -17l-12 -17l-11 -19l-9 -20l-7 -20l-5 -19z" />
    <glyph glyph-name="f" unicode="f" horiz-adv-x="270" 
d="M236 687q8 0 13.5 -5t6.5 -13q0 -8 -5 -13.5t-13 -6.5h-13l-11 -2l-10 -2l-12 -4l-10 -5l-11 -7l-9 -6l-10 -9l-8 -9l-7 -10l-6 -10l-6 -12l-3 -11l-3 -11l-1 -11l-1 -11v-26h74q8 0 13.5 -5.5t5.5 -13.5t-5.5 -13.5t-13.5 -5.5h-74v-442q0 -8 -5 -13.5t-13 -5.5
t-13.5 5.5t-5.5 13.5v442h-27q-19 0 -19 19q0 8 5.5 13.5t13.5 5.5h27v27v1v12l2 15l4 14l5 15l6 14q0 1 0.5 1t0.5 1l7 12q0 1 0.5 1t0.5 1l8 11l2 2l9 10l12 11q1 1 2 1l11 9l14 8l2 1l12 5l15 6h2l12 3l15 2l14 1v0z" />
    <glyph glyph-name="R" unicode="R" horiz-adv-x="504" 
d="M454 41q5 -6 4 -14t-7 -13q-4 -4 -12 -4t-14 7l-152 186l-18 -4l-23 -4l-22 -1h-1h-119v-165q0 -8 -5.5 -13.5t-13.5 -5.5q-19 0 -19 19v645q0 8 5.5 13.5t13.5 5.5h138h1l21 -1l22 -3l24 -6l23 -8h2l21 -10l1 -1l20 -11l2 -2l19 -14q1 0 2 -1l17 -16q1 0 1 -0.5t1 -0.5
l16 -18l1 -1l14 -19q0 -1 0.5 -1t0.5 -1l12 -20q0 -1 1 -2l9 -21l8 -23l6 -23l3 -23l1 -23l-1 -22l-3 -23l-5 -23l-8 -23l-10 -23q-1 -1 -1 -2l-12 -20q0 -1 -0.5 -1t-0.5 -1l-14 -19l-1 -1l-16 -18q-1 0 -1 -0.5t-1 -0.5l-17 -16l-2 -2l-19 -13l-2 -2l-20 -11q0 -1 -1 -1
l-12 -6zM306 256l19 10l17 13l17 15l14 16l13 18l11 18l9 20l7 20l4 20l3 19l1 19l-1 19l-3 20l-5 20l-7 19l-8 19l-11 18l-13 18l-14 16l-17 15l-17 13l-19 10l-19 9l-21 7l-19 5l-20 2l-18 1h-119v-423h119l20 1l19 3l20 4l19 7z" />
    <glyph glyph-name="r" unicode="r" horiz-adv-x="428" 
d="M394 465q7 -4 9 -11t-2 -14q-3 -8 -10.5 -10t-14.5 2l-29 15l-28 10l-29 6l-28 2l-22 -1l-23 -4l-23 -7l-23 -9l-22 -12l-21 -15l-18 -17l-13 -15v-362q0 -8 -5.5 -13.5t-13.5 -5.5t-13.5 5.5t-5.5 13.5v461q0 8 5.5 13t13.5 5t13.5 -5t5.5 -13v-45l7 6l2 2l22 16
q1 1 2 1l24 14h2l25 11h2l25 7q1 1 2 1l25 4h2l24 1h3l30 -2h2l32 -6q0 -1 2 -1l31 -11q1 0 1.5 -0.5t1.5 -0.5l30 -16v0z" />
    <glyph glyph-name="S" unicode="S" horiz-adv-x="452" 
d="M410 209l-1 -18l-3 -19l-4 -19l-6 -19l-1 -1l-8 -17v-2l-10 -16l-12 -17l-1 -1l-13 -15q-1 0 -2 -1l-14 -13l-1 -1l-15 -11q-1 0 -2 -1l-16 -10h-2l-17 -8l-19 -7l-19 -4l-18 -3l-19 -1l-22 1q-1 0 -1 0.5t-1 0.5l-21 3q-1 0 -2 1l-21 6q-1 0 -1.5 0.5t-1.5 0.5l-20 9
q-1 0 -1.5 0.5t-1.5 0.5l-19 12q-1 0 -2 1l-19 14l-2 2l-16 17l-2 2l-14 18q-5 6 -4 13.5t7 12.5q15 11 27 -3l13 -18l15 -15l17 -13l18 -10l18 -8l19 -6l19 -3l20 -1l14 1l16 2l15 3l15 6l15 6l14 9l14 10l13 11l11 13l11 14l8 14l7 15l5 17l4 15l2 15v15l-1 15l-2 15
l-3 16l-5 14l-7 15l-9 16l-10 13l-11 12l-13 12l-14 10l-14 8l-15 7l-17 6l-15 3l-15 2l-15 1h-13l-14 2l-15 4l-14 5l-15 6l-1 1l-12 7q-1 0 -2 1l-12 8q0 1 -0.5 1t-0.5 1l-11 9l-11 12q0 1 -1 2l-8 11q-1 1 -1 2l-7 12l-7 14l-5 15l-1 2l-3 12l-2 15v14v14l2 15l3 14
q1 1 1 2l4 13l7 14l8 14l1 2l8 11q1 1 1 2l10 10q0 1 0.5 1t0.5 1l11 9q0 1 1 1l12 9l2 1l12 7l1 1l13 5l15 5l14 4l15 2l14 1l14 -1l15 -2h2l13 -3l15 -6h2l13 -6q1 -1 2 -1l12 -8q1 0 1 -0.5t1 -0.5l12 -9l1 -1l11 -11q5 -5 5.5 -12.5t-4.5 -13.5q-13 -13 -27 -1l-10 10
l-10 8l-11 6l-11 5l-12 5l-11 2l-12 2h-11h-11l-11 -2l-11 -3l-11 -3l-10 -5l-11 -6l-10 -7l-9 -9l-8 -9l-7 -10l-7 -11l-5 -11l-3 -10l-3 -12l-1 -11l-1 -11l1 -11l1 -11l3 -10l4 -12l5 -11l6 -9l7 -10l9 -10l8 -8l10 -7l11 -6l12 -6l11 -3l11 -3l11 -1l11 -1h16l19 -3
l19 -4l19 -7h1l17 -8q1 0 2 -1l16 -9q0 -1 2 -1l15 -11q0 -1 0.5 -1t0.5 -1l14 -12l2 -2l13 -14l1 -1l11 -16l11 -18v-1l8 -17q0 -1 0.5 -1t0.5 -1l6 -17l4 -19l3 -19z" />
    <glyph glyph-name="s" unicode="s" horiz-adv-x="354" 
d="M317 155l-1 -14l-2 -14l-3 -14l-5 -14v-1l-6 -12q0 -1 -1 -2l-6 -12q-1 0 -1 -1l-8 -11l-2 -2l-9 -10l-1 -1l-10 -9q-1 -1 -2 -1l-11 -8q0 -1 -1 -1l-12 -7q0 -1 -1 -1l-12 -6l-14 -4q-1 -1 -2 -1l-13 -3l-13 -2h-14h-16q-2 0 -3 1l-15 2l-2 1l-15 4q-1 0 -1 0.5t-1 0.5
l-15 6q-1 1 -2 1l-14 9q-1 0 -2 1l-13 10l-2 2l-12 12l-2 2l-10 13q-5 6 -4 13.5t8 12.5q6 5 13.5 4t12.5 -7l9 -12l11 -11l11 -8l12 -8l13 -5l13 -4l13 -2l13 -1h10l20 4l12 4l9 5l10 5l9 7l9 8l8 9l7 9l6 10l4 10l4 12l3 10l1 11v10v10l-2 10l-2 11l-4 9l-5 12l-5 9l-7 9
l-8 9l-9 7l-9 7l-10 6l-10 5l-11 4l-11 2l-21 2l-19 2l-11 2l-11 4h-2l-9 4q0 1 -2 1l-8 5l-10 7q0 1 -0.5 1t-0.5 1l-8 7q-1 0 -1 1l-7 7q-1 1 -1 2l-6 8l-2 2l-5 8v2l-5 9l-3 11l-3 11l-2 11v10v11l2 11l2 11l4 11v1l5 9l5 11q1 0 1 0.5t1 0.5l6 9l1 1l7 8l1 1l8 7l9 7
q1 0 1 0.5t1 0.5l9 5l10 5q1 0 1 0.5t1 0.5l20 6l11 1l10 1l11 -1l12 -1l11 -3h2l9 -4l11 -5q1 0 2 -1l9 -5q0 -1 1 -1l9 -7l1 -1l8 -7q5 -5 5.5 -13t-4.5 -14q-6 -5 -13.5 -5.5t-13.5 5.5l-14 11l-7 5l-15 6l-16 3h-8l-14 -1l-14 -4l-14 -8l-13 -10l-11 -13l-7 -14l-5 -16
l-1 -15l2 -14l4 -15l7 -13l11 -13l6 -6l14 -9l15 -6l15 -2l7 -1h12l14 -2l14 -3l14 -5l2 -1l12 -5l1 -1l12 -7l1 -1l11 -8q1 0 1 -0.5t1 -0.5l10 -9q0 -1 1 -1l9 -11q1 0 1 -0.5t1 -0.5l8 -11q0 -1 1 -2l6 -11l7 -14v-2l5 -12l3 -14l2 -14z" />
    <glyph glyph-name="T" unicode="T" horiz-adv-x="543" 
d="M503 686q8 0 13.5 -5.5t5.5 -13.5t-5.5 -13.5t-13.5 -5.5h-212v-626q0 -8 -5 -13.5t-13 -5.5t-13.5 5.5t-5.5 13.5v626h-212q-8 0 -13 5.5t-5 13.5t5 13.5t13 5.5h461v0z" />
    <glyph glyph-name="t" unicode="t" horiz-adv-x="295" 
d="M232 502q8 0 13.5 -5t5.5 -13t-5.5 -13.5t-13.5 -5.5h-74v-442q0 -8 -5 -13.5t-13 -5.5q-19 0 -19 19v442h-73q-19 0 -19 19q0 8 5.5 13t13.5 5h73v166q0 8 5.5 13.5t13.5 5.5t13 -5.5t5 -13.5v-166h74v0z" />
    <glyph glyph-name="U" unicode="U" horiz-adv-x="676" 
d="M631 299l-1 -25l-4 -27l-6 -28l-9 -27l-12 -27q-1 -1 -1 -2l-14 -24q-1 -1 -1 -2l-17 -23q-1 0 -1 -1l-20 -22l-1 -1l-21 -19q-1 -1 -2 -1l-23 -17l-1 -1l-25 -14q0 -1 -1 -1l-26 -12l-27 -9l-27 -7l-28 -3l-26 -2l-27 1l-27 4l-27 6l-28 10l-27 12l-26 15l-1 1l-23 17
q-1 0 -2 1l-21 19q-1 0 -1 1l-20 22l-1 1l-17 23q0 1 -1 2l-14 24l-12 27l-1 2l-9 25l-6 28l-4 27l-1 27v47v322q0 8 5.5 13.5t13.5 5.5t13 -5.5t5 -13.5v-322v-46l1 -25l4 -23l5 -24l8 -23l11 -25l13 -22l16 -21l18 -20l20 -18l21 -15l23 -14l24 -11l24 -8l24 -5l24 -3
l23 -1l23 1l24 3l24 6l24 8l22 11l23 13l21 15l20 18l18 20l16 21l13 23l11 24l8 24l6 24l3 24l1 23v368q0 8 5 13.5t13 5.5t13.5 -5.5t5.5 -13.5v-369z" />
    <glyph glyph-name="u" unicode="u" horiz-adv-x="577" 
d="M536 258v-1l-1 -21l-3 -23l-5 -23l-8 -23l-10 -23l-13 -22l-1 -1l-14 -20l-1 -1l-16 -18l-1 -1l-18 -16q0 -1 -1 -1l-20 -14q0 -1 -1 -1l-20 -12q-1 0 -2 -1l-21 -10l-23 -8l-23 -5l-24 -3l-22 -1h-22l-23 4l-23 5l-24 8l-22 10q-1 0 -1 0.5t-1 0.5l-20 12q-1 0 -2 1
l-19 14q-1 0 -1 1l-18 16q-1 0 -1 0.5t-1 0.5l-16 18l-1 1l-14 20l-1 1l-12 20v2l-10 21l-8 23l-6 23l-3 23l-1 23v1v230q0 8 5.5 13.5t13.5 5.5t13.5 -5.5t5.5 -13.5v-230l1 -20l2 -20l5 -19l7 -20l8 -18l11 -19l13 -18l15 -16l16 -15l17 -12l19 -11l20 -9l20 -7l20 -5
l19 -2l19 -1l19 1l20 3l19 4l20 7l18 9l19 11l18 12l16 15l15 16l12 18l12 19l8 20l7 19l5 20l2 19l1 19v230q0 8 5.5 13.5t13.5 5.5t13 -5.5t5 -13.5v-230z" />
    <glyph glyph-name="V" unicode="V" horiz-adv-x="733" 
d="M368 1q-12 0 -17 10l-323 645q-3 7 -1 14t10 11q7 4 14 1.5t11 -9.5l306 -612l305 612q4 7 11 9.5t14 -1.5q8 -4 10 -11t-1 -14l-323 -645q-5 -10 -16 -10z" />
    <glyph glyph-name="v" unicode="v" horiz-adv-x="555" 
d="M278 5q-12 0 -17 10l-230 461q-4 7 -1.5 14.5t9.5 10.5q7 4 14.5 1.5t10.5 -9.5l214 -427l214 427q3 7 10 9.5t15 -1.5q7 -3 9.5 -10.5t-1.5 -14.5l-230 -461q-5 -10 -17 -10z" />
    <glyph glyph-name="W" unicode="W" horiz-adv-x="1152" 
d="M1115 687q7 -4 9.5 -11t-1.5 -14l-323 -646q-5 -10 -16 -10q-12 0 -17 10l-191 382l-190 -382q-5 -10 -17 -10t-17 10l-322 646q-4 7 -1.5 14t9.5 11q7 3 14.5 1t10.5 -10l306 -611l186 373l-111 222q-3 7 -0.5 14t9.5 11q7 3 14 1t11 -10l98 -197l99 197q3 8 10.5 10
t14.5 -1q7 -4 9.5 -11t-1.5 -14l-111 -222l187 -373l305 611q4 8 11 10t15 -1z" />
    <glyph glyph-name="w" unicode="w" horiz-adv-x="882" 
d="M847 503q7 -4 9.5 -11t-0.5 -15l-231 -460q-5 -11 -17 -11q-11 0 -16 11l-145 289l-144 -289q-5 -11 -17 -11t-17 11l-230 460q-4 8 -1.5 15t9.5 11q7 3 14.5 0.5t10.5 -9.5l214 -427l140 281l-65 129q-3 8 -1 15t10 11q7 3 14 0.5t11 -9.5l52 -105l53 105q3 7 10 9.5
t15 -0.5q7 -4 9.5 -11t-1.5 -15l-65 -129l140 -281l214 427q4 7 11 9.5t14 -0.5z" />
    <glyph glyph-name="X" unicode="X" horiz-adv-x="629" 
d="M585 34q5 -6 4 -14t-7 -13q-8 -4 -12 -4q-9 0 -15 8l-238 303l-239 -303q-6 -8 -15 -8q-5 0 -11 4q-7 5 -8 13t4 14l245 311l-245 311q-5 6 -4 13.5t8 12.5q6 5 13.5 4t12.5 -7l239 -304l238 304q12 13 27 3q6 -5 7 -12.5t-4 -13.5l-245 -311z" />
    <glyph glyph-name="x" unicode="x" horiz-adv-x="533" 
d="M491 34q5 -6 5 -14t-6 -13q-5 -4 -13 -4t-14 6l-193 215l-193 -215q-6 -6 -14 -6t-13 4q-6 5 -6 13t5 14l196 218l-196 218q-5 5 -5 13t6 13t14 4.5t13 -5.5l193 -215l193 215q5 5 13 5.5t14 -4.5t6 -13t-5 -13l-196 -218z" />
    <glyph glyph-name="Y" unicode="Y" horiz-adv-x="661" 
d="M622 693q6 -5 6.5 -12.5t-4.5 -13.5l-272 -317v-316q0 -8 -5.5 -13.5t-13.5 -5.5t-13.5 5.5t-5.5 13.5v316l-272 317q-5 6 -4 13.5t6 12.5q6 5 14 4.5t13 -6.5l262 -305l262 305q5 6 13 6.5t14 -4.5z" />
    <glyph glyph-name="y" unicode="y" horiz-adv-x="483" 
d="M430 506q7 -4 9.5 -11t-1.5 -14l-316 -639q-3 -7 -10.5 -9.5t-14.5 0.5q-7 4 -9.5 11t1.5 14l141 285l-201 335q-4 8 -2.5 15.5t8.5 12.5q7 4 14.5 1.5t12.5 -10.5l187 -314l156 315q3 7 10.5 9.5t14.5 -1.5z" />
    <glyph glyph-name="Z" unicode="Z" horiz-adv-x="653" 
d="M604 2h-553q-12 0 -17 10q-5 11 3 21l526 614h-512q-8 0 -13.5 5t-5.5 13t5.5 13.5t13.5 5.5h553q12 0 17 -11q5 -10 -3 -20l-526 -614h512q8 0 13.5 -5.5t5.5 -13.5t-5.5 -13t-13.5 -5z" />
    <glyph glyph-name="z" unicode="z" horiz-adv-x="538" 
d="M483 0h-415q-12 0 -17 11q-4 9 3 20l387 429h-373q-8 0 -13 5.5t-5 13.5t5 13.5t13 5.5h415q11 0 17 -11q5 -12 -3 -20l-387 -430h373q8 0 13.5 -5.5t5.5 -13.5t-5.5 -13t-13.5 -5z" />
    <glyph glyph-name="zero" unicode="0" horiz-adv-x="587" 
d="M545 253l-1 -21l-3 -23l-5 -23l-8 -23l-10 -23q-1 -1 -1 -2l-12 -20l-15 -21q-1 0 -1 -1l-16 -18q-1 -1 -2 -1l-17 -16l-2 -2l-19 -14q-1 0 -2 -1l-20 -11l-23 -11l-23 -8l-23 -5l-23 -4l-22 -1l-23 1l-23 3l-23 6l-23 7q-1 1 -2 1l-21 10l-22 12q0 1 -1 1l-19 14l-2 2
l-18 16l-1 1l-16 18l-1 1l-14 19q-1 1 -1 2l-12 20l-10 23l-8 23q-1 1 -1 2l-5 21l-3 23l-1 23v185v1l1 20l3 23l5 23q0 2 1 2l7 22l10 22l13 22q0 1 1 2l14 19l1 1l16 18q0 1 0.5 1t0.5 1l18 15l2 2l19 14l1 1l21 12l22 10l23 8l24 5l23 4l22 1l22 -1l23 -3l24 -6l23 -7
l22 -11h2l20 -12q1 -1 2 -1l19 -14l2 -2l17 -15l2 -2l16 -18l1 -1l14 -19q0 -1 0.5 -1t0.5 -1l12 -20q0 -1 1 -2l9 -21l8 -23l6 -23l3 -23l1 -22v-1v-185zM507 235l1 19v183l-1 21l-3 19l-5 20l-7 19l-8 19l-11 19l-13 17l-15 16l-16 15l-17 13l-19 11l-20 9l-20 6l-19 5
l-20 3h-19l-19 -1l-20 -2l-19 -5l-20 -7l-19 -9l-18 -10l-17 -13l-17 -15l-14 -16l-13 -17l-12 -20l-8 -19l-7 -19l-4 -21l-3 -19l-1 -19v-183l1 -20l3 -20l4 -19l7 -20l9 -20l11 -17l13 -18l14 -16l17 -15l17 -13l20 -11l18 -8l21 -7l19 -5l20 -2l19 -1l19 1l19 2l20 5
l20 7l19 9l18 10l17 13l16 15l15 16l13 18l11 18l9 20l7 20l4 20z" />
    <glyph glyph-name="one" unicode="1" horiz-adv-x="233" 
d="M166 662q0 -1 0.5 -1.5t0.5 -1.5v-645q0 -8 -5.5 -13.5t-13.5 -5.5q-19 0 -19 19v583l-58 -87q-5 -8 -15 -8q-7 0 -11 3q-6 5 -8 12t3 14l92 138l1 1q7 10 19 7h1q1 0 1 -1h1l1 -1h1q1 0 3 -2l1 -1l1 -1q1 -1 1 -2q1 0 1 -1l1 -1v-1v-1q1 0 1 -1v-1v-1v0z" />
    <glyph glyph-name="two" unicode="2" horiz-adv-x="498" 
d="M85 53l-3 -9h357q8 0 13 -5.5t5 -13.5t-5 -13.5t-13 -5.5h-378q-3 0 -7 2q-1 0 -2 1h-1l-1 1l-1 1l-1 1q-1 0 -1 1q-1 1 -1 2h-1v1q-1 1 -1 2t-1 1v2q-2 3 0 6l1 17l1 2l3 16q0 1 1 2l5 15l7 17q0 1 0.5 1t0.5 1l17 28l2 2l22 26l2 2l55 47l1 1l64 43l122 89l23 24l20 25
l15 28l5 14l4 15l5 22l1 22l-1 15l-2 16l-4 15l-5 15l-6 15l-9 14l-10 14l-11 13l-13 11l-15 11l-13 8l-16 7l-16 5l-15 4l-16 2h-13l-28 -2l-15 -3l-14 -4l-13 -6l-14 -7l-13 -9l-12 -9l-11 -11l-10 -12l-9 -12l-8 -13l-7 -14l-4 -13l-7 -30q-2 -8 -8 -12t-14 -2t-12 8
t-2 14l7 32v2l6 15l8 17l9 16l11 16l13 14l14 13l15 12l15 10l17 9l17 7l17 5l17 4h3l30 3h2l17 -1l19 -2l18 -5l19 -6l19 -8q0 -1 2 -1l16 -10l17 -12l1 -1l14 -13q1 0 1 -0.5t1 -0.5l12 -15q1 0 1 -0.5t1 -0.5l11 -15q0 -1 0.5 -1t0.5 -1l9 -16q1 -1 1 -2l8 -17l1 -1
l5 -18l5 -18l3 -19l1 -18v-2l-2 -24v-3l-5 -24q0 -1 -1 -1v-1l-4 -16q0 -1 -1 -2l-6 -16q0 -1 -1 -2l-16 -30l-2 -2l-21 -28l-2 -2l-25 -25l-2 -2l-124 -90l-62 -43l-53 -46l-20 -23l-16 -26l-6 -13z" />
    <glyph glyph-name="three" unicode="3" horiz-adv-x="473" 
d="M226 6h-1l-28 2h-3l-28 7q-2 0 -3 1l-28 11q-1 1 -1.5 1t-1.5 1l-26 16q-2 2 -3 2l-24 21q0 1 -2 3l-19 24q-2 2 -2 3l-15 27q0 1 -0.5 1.5t-0.5 1.5l-10 28q-2 8 1 15t11 9q7 3 14 -0.5t9 -10.5l10 -27l13 -25l18 -22l21 -19l24 -15l25 -10l25 -6l25 -2l16 1l15 2l16 4
l15 5l14 7l15 8l13 10l13 12l12 12l10 14l9 15l6 16l6 15l3 15l2 16l1 14l-1 15l-2 16l-4 15l-5 15l-7 15l-8 14l-10 14l-12 13l-13 11l-13 10l-15 9l-16 7l-15 5l-16 4l-15 2h-15q-8 1 -13 6t-5 13t5 13t13 6h13l11 2l11 3l11 3l10 5l10 6l10 7l10 9l8 9l7 10l7 11l5 11
l3 10l3 12l1 11l1 11l-1 11l-4 21l-4 12l-5 11l-6 9l-7 10l-8 10l-10 8l-10 7l-10 6l-12 6l-11 3l-11 3l-21 2l-17 -2l-18 -4l-18 -7l-17 -10l-15 -13l-13 -16l-10 -17l-7 -19q-7 -16 -24 -11q-8 3 -11 10t0 15l8 20q0 1 0.5 1.5t0.5 1.5l12 20q0 1 0.5 1t0.5 1l15 18l2 2
l18 15l2 2l20 12l2 1l21 9h3l21 5l2 1l21 1h2h12l15 -2l14 -4l15 -5l14 -6q1 0 1 -0.5t1 -0.5l12 -7q1 0 1 -0.5t1 -0.5l11 -8l2 -2l10 -9l2 -2l9 -10l2 -2l8 -11q0 -1 0.5 -1t0.5 -1l7 -12l7 -14l5 -15v-2l3 -12l2 -15l1 -14v-14l-2 -15l-4 -14v-2l-5 -13l-6 -14l-8 -14
l-1 -1l-8 -12l-2 -2l-9 -10l-12 -11q-1 0 -1 -0.5t-1 -0.5l-11 -9q-1 0 -2 -1l-6 -3l14 -7h1l16 -10q1 0 1 -0.5t1 -0.5l15 -11q1 -1 2 -1l14 -13l1 -1l13 -15l1 -1l11 -15l2 -2l9 -16q0 -1 0.5 -1t0.5 -1l8 -17l6 -19l5 -19l2 -18l1 -19l-1 -18l-2 -18l-4 -19l-7 -19
l-8 -19l-10 -18q-1 0 -1 -0.5t-1 -0.5l-11 -16q0 -1 -1 -1l-13 -14q0 -1 -0.5 -1t-0.5 -1l-14 -12l-2 -2l-15 -11q-1 0 -2 -1l-16 -9l-1 -1l-17 -8l-19 -6l-19 -5l-19 -2l-18 -1h-1z" />
    <glyph glyph-name="four" unicode="4" horiz-adv-x="494" 
d="M459 267q8 0 13 -5.5t5 -13.5t-5 -13t-13 -5h-80v-212q0 -8 -5 -13.5t-13 -5.5t-13.5 5.5t-5.5 13.5v212h-304q-10 0 -17 10q-4 10 2 20l323 415l1 1q1 1 2 1q2 3 9 5h2h1h1h1h1q0 -1 1 -1h1h1h1q0 -1 1 -1t1 -1h1l1 -1q1 0 1 -1l1 -1q1 0 1 -1l1 -1q0 -1 1 -1v-1l1 -1
v-2h1v-2v-1v-1v-1v-1v-396h80zM342 267v342l-265 -342h265z" />
    <glyph glyph-name="five" unicode="5" horiz-adv-x="516" 
d="M468 250l-1 -22l-3 -23l-5 -23q0 -2 -1 -2l-7 -22l-10 -22l-13 -22q0 -1 -1 -2l-14 -19l-1 -1l-16 -18q-1 -1 -1 -2l-18 -15l-2 -2l-19 -14l-1 -1l-21 -12l-22 -10l-23 -8l-24 -5l-23 -4l-22 -1l-24 1l-25 4h-2l-23 6q-1 0 -1 0.5t-1 0.5l-23 8q-1 1 -2 1l-22 11
q-1 1 -2 1l-22 14q0 1 -0.5 1t-0.5 1l-20 16q-1 0 -1 0.5t-1 0.5l-18 19q-5 5 -5 13t5 13q6 5 14 5t13 -5l17 -18l19 -15l19 -12l21 -11l21 -8l21 -5l22 -3l21 -1l19 1l19 2l20 5l20 7l19 9l18 10l17 13l17 15l14 16l13 18l12 19l8 19l7 19l4 21l3 19l1 19l-1 19l-3 20
l-5 19l-6 20l-9 19l-11 18l-13 18l-14 16l-17 15l-17 12l-19 12l-20 8l-19 7l-20 5l-20 2l-18 1h-141q-8 0 -15 7q-6 9 -3 17l49 184q3 14 18 14h230q8 0 13.5 -5.5t5.5 -13.5t-5.5 -13.5t-13.5 -5.5h-216l-39 -147h117h1l21 -1l23 -3l23 -5l23 -8l23 -10l22 -13l1 -1
l19 -14q1 0 1 -0.5t1 -0.5l18 -16l1 -1l16 -18l1 -1l14 -20q1 0 1 -1l12 -20l10 -23l8 -23l6 -24l3 -22z" />
    <glyph glyph-name="six" unicode="6" horiz-adv-x="569" 
d="M533 250l-1 -22l-3 -23l-6 -23l-8 -23l-10 -23q0 -1 -1 -2l-12 -20l-1 -2l-14 -19l-1 -1l-16 -18l-1 -1l-18 -16q0 -1 -1 -1l-19 -14q-1 -1 -2 -1l-20 -12l-23 -11h-2l-21 -8l-23 -5l-23 -3l-23 -1l-1 -1v1h-21l-23 4l-23 5l-23 8h-2l-21 10l-22 13q-1 0 -2 1l-19 14
l-1 1l-18 16l-1 1l-16 18q-1 0 -1 1l-14 19q-1 1 -1 2l-12 20q-1 1 -1 2l-10 21l-8 23l-5 23l-4 23l-1 22v3l1 6v14l1 2q1 28 2 43.5t1.5 23t0.5 9v1.5l15 84v2l12 38l14 35q0 1 1 2l16 31q1 0 1 2l19 27l2 2l21 24l2 2l24 21l2 2l26 17l2 2l29 14q1 0 1 0.5t1 0.5l32 11
q0 1 2 1l34 8h2l36 5l41 2q7 0 13 -5t6 -13q1 -8 -4.5 -13.5t-13.5 -5.5l-39 -2l-33 -5l-33 -7l-29 -11l-27 -13l-24 -17l-23 -19l-19 -23l-18 -26l-16 -29l-13 -33l-10 -34l-5 -24l3 3l1 1l16 18q0 1 1 1l18 16q0 1 0.5 1t0.5 1l19 14q1 0 2 1l20 11l23 11l2 1l21 7l23 5
l23 4l23 1l22 -1l23 -3l23 -6l23 -7q1 -1 2 -1l21 -10l22 -12q1 -1 2 -1l19 -14q0 -1 0.5 -1t0.5 -1l18 -16l1 -1l16 -18q1 0 1 -1l14 -19q1 -1 1 -2l12 -20q1 -1 1 -2l10 -21l8 -23l5 -23l4 -23zM495 250l-1 19l-3 20l-4 20l-7 19l-8 19l-11 18l-13 18l-15 16l-16 15
l-18 13l-19 11l-19 8l-20 7l-20 5l-19 2l-19 1l-19 -1l-20 -2l-20 -5l-18 -7l-21 -9l-17 -10l-18 -13l-16 -15l-15 -16l-13 -18l-11 -18l-9 -20l-6 -20l-5 -20l-2 -17l-1 -21l1 -19l3 -20l4 -19l7 -20l8 -19l11 -18l13 -18l15 -16l16 -15l18 -13l19 -11l19 -8l20 -7l20 -5
l19 -2l18 -1l20 1l20 3l20 4l18 7l21 9l17 10l18 13l16 15l15 16l13 18l10 18l10 21l6 19l5 20l2 19z" />
    <glyph glyph-name="nine" unicode="9" horiz-adv-x="569" 
d="M544 439v-9l-1 -12v-1q-2 -29 -2.5 -44.5t-1 -23t-0.5 -9v-1.5l-15 -84q0 -1 -1 -2l-11 -38l-15 -35v-2l-17 -31l-1 -1l-19 -28q0 -1 -0.5 -1t-0.5 -1l-21 -24l-2 -2l-24 -21q-1 0 -1 -0.5t-1 -0.5l-26 -18q-1 -1 -2 -1l-30 -15l-2 -1l-31 -11q-1 0 -1 -0.5t-1 -0.5
l-34 -8h-2l-36 -5l-41 -2h-1q-8 0 -13 5t-6 13q0 8 5 13.5t13 6.5l39 1l34 5l32 7l30 11l27 14l24 16l22 20l20 22l18 26l15 29l14 33l10 35l4 23l-2 -3l-1 -1l-16 -18q-1 0 -1 -1l-18 -16q-1 -1 -2 -1l-19 -14q0 -1 -1 -1l-21 -12q0 -1 -1 -1l-21 -10l-23 -8l-24 -5l-23 -3
l-22 -2h-1h-1l-20 1l-23 3l-24 6l-23 8l-22 10q-2 0 -2 1l-20 12q-1 0 -2 1l-19 14q-1 0 -2 1l-17 16q-1 0 -1 0.5t-1 0.5l-16 18l-1 1l-14 19l-13 22q0 1 -1 2l-9 21l-8 23l-6 23l-3 23l-1 23l1 22l3 23l5 23l8 23l10 23q1 1 1 2l12 20l15 21l1 1l16 18q1 1 2 1l17 16l2 2
l19 14q1 0 2 1l20 11q0 1 2 1l21 10l23 8l23 5l23 4l22 1l23 -1l23 -3l23 -6l23 -7l23 -11l1 -1l21 -11q0 -1 1 -1l19 -14l2 -2l18 -16l1 -1l16 -18l1 -1l14 -19q1 -1 1 -2l12 -20l10 -23l8 -23l6 -23l3 -23l1 -22v-2zM492 363l7 19l4 20l3 17l1 22l-1 18l-3 20l-5 20l-6 19
l-9 20l-11 17l-13 18l-14 16l-17 15l-17 13l-19 11l-20 9l-20 6l-19 5l-20 2l-19 1l-19 -1l-19 -2l-20 -5l-20 -7l-18 -8l-19 -11l-17 -13l-17 -15l-14 -16l-13 -18l-11 -18l-9 -20l-7 -20l-4 -20l-3 -19v-19v-19l3 -20l5 -20l7 -19l8 -19l12 -19l12 -17l14 -16l17 -15
l17 -13l19 -10l20 -10l20 -6l19 -5l20 -2l18 -1l20 1l19 3l20 4l20 7l18 9l19 10l17 13l17 15l14 16l13 18l12 19z" />
    <glyph glyph-name="seven" unicode="7" horiz-adv-x="519" 
d="M486 670l-3 -49q0 -2 -1 -3l-8 -44q-1 -1 -1 -3l-14 -40q0 -2 -1 -3l-18 -37q0 -1 -1 -2l-46 -69q-1 0 -1 -1l-54 -65l-108 -140l-22 -41l-19 -44l-15 -50l-11 -57q-2 -6 -7 -10.5t-11 -4.5q-3 0 -4 1q-8 2 -12.5 8t-2.5 14l11 57q1 1 1 2l16 52v1l20 47l24 44q0 2 2 2
l108 142l54 65l45 66l17 36l13 38l8 42l2 28h-395q-8 0 -13 5.5t-5 13.5t5 13.5t13 5.5h414h1h1h1h1h1v-1h1h1h1q0 -1 1 -1h1l1 -1q1 0 1 -1h1v-1h1q0 -1 1 -1v-1h1q0 -1 1 -1v-1v-1h1v-1q0 -1 1 -1v-1v-1v-1q1 0 1 -1v-1v-1v-1v-1z" />
    <glyph glyph-name="eight" unicode="8" horiz-adv-x="466" 
d="M436 210v-18l-3 -19l-4 -19l-7 -18l-8 -19q0 -1 -1 -2l-9 -16q-1 0 -1 -2l-11 -15l-14 -15l-2 -2l-14 -13l-1 -1l-16 -11l-1 -1l-17 -9l-18 -9l-19 -7l-19 -4l-19 -3l-18 -1h-1l-17 1l-19 3l-19 4l-19 6l-18 9l-18 10l-2 1l-15 11q0 1 -1 1l-15 13q0 1 -0.5 1t-0.5 1
l-13 14l-12 16q0 1 -1 2l-10 16l-8 19l-1 2l-6 17l-4 19l-3 18l-1 19l1 18l3 19l4 18l6 19q0 1 0.5 1t0.5 1l8 17v2l10 16l1 1l11 16q1 0 1 1l13 14q0 1 0.5 1t0.5 1l15 12q0 1 0.5 1t0.5 1l15 11q1 0 2 1l16 9q1 1 2 1l14 6l-7 4l-1 1l-12 9l-1 1l-11 9q0 1 -0.5 1t-0.5 1
l-10 10q0 1 -0.5 1t-0.5 1l-8 11q-1 1 -1 2l-8 12v2l-6 12l-5 15l-4 15l-2 14l-1 14l1 14l2 15l3 14l5 15l7 14v2l8 12q0 1 1 2l8 11q0 1 0.5 1t0.5 1l10 10q0 1 0.5 1t0.5 1l11 9q0 1 1 1l12 9l1 1l12 7q1 0 2 1l13 6l14 5l15 3l14 2l15 1l14 -1l14 -2l15 -3l14 -5l15 -6
l1 -1l12 -7q1 0 2 -1l12 -9l1 -1l11 -9q0 -1 0.5 -1t0.5 -1l10 -10l9 -13q1 -1 1 -2l7 -12l7 -14l5 -15l4 -15l2 -14v-14v-14l-2 -15l-3 -14l-5 -15l-7 -14l-8 -14q0 -1 -1 -2l-8 -11l-11 -12q0 -1 -0.5 -1t-0.5 -1l-11 -9q0 -1 -1 -1l-12 -9l-2 -1l-6 -4l14 -6l18 -10l1 -1
l16 -11q0 -1 0.5 -1t0.5 -1l14 -12l2 -2l12 -14q1 0 1 -0.5t1 -0.5l11 -16l1 -1l9 -16q1 -1 1 -2l8 -17l6 -19l5 -19l2 -18zM149 447l9 -8l10 -7l10 -6l12 -6l11 -3l11 -3l21 -2l12 1l11 2l11 2l11 4l10 5l11 6l10 7l9 8l9 10l6 10l7 11l5 11l4 11l2 11l2 22l-1 11l-1 11
l-3 11l-4 11l-5 11l-6 9l-7 11l-8 8l-9 9l-10 7l-11 6l-12 5l-11 4l-11 3l-11 1h-10h-11l-11 -2l-11 -2l-12 -4l-9 -5l-11 -6l-10 -7l-9 -9l-8 -9l-8 -10l-6 -10l-5 -12l-4 -11l-2 -11l-2 -22v-11l2 -11l3 -11l4 -11l4 -10l6 -10l8 -10zM399 210l-1 15l-2 15l-4 16l-5 15
l-7 14l-8 15l-10 14l-12 12l-12 12l-14 10l-15 9l-16 7l-15 5l-15 3l-16 2l-14 1l-15 -1l-16 -2l-15 -4l-15 -5l-15 -6l-14 -9l-14 -10l-13 -12l-11 -12l-10 -14l-9 -15l-7 -15l-5 -16l-4 -15l-2 -16v-14l1 -15l2 -16l3 -15l5 -14l8 -16l8 -14l10 -15l11 -12l13 -11l14 -10
l15 -9l15 -7l16 -5l15 -4l15 -2h14l16 1l15 2l16 3l15 6l15 7l14 8l14 10l12 11l12 14l10 13l8 14l8 16l5 16l3 15l2 15z" />
    <glyph glyph-name="m" unicode="m" horiz-adv-x="911" 
d="M860 252v-230q0 -8 -5.5 -13.5t-13.5 -5.5t-13 5.5t-5 13.5v230l-1 20l-3 20l-5 19l-7 20l-8 18l-11 19l-13 18l-14 16l-17 15l-17 12l-19 11l-19 9l-21 7l-19 5l-20 2l-19 1l-21 -1l-23 -4l-23 -7l-23 -9l-22 -12l-21 -15l-19 -17l-8 -10q1 0 1 -1l12 -20q0 -1 1 -2
l10 -21l8 -23l5 -24l3 -22l1 -23v-1v-230q0 -8 -5 -13.5t-13 -5.5t-13.5 5.5t-5.5 13.5v230l-1 20l-3 20l-4 19l-7 20l-9 18l-11 19l-12 18l-15 16l-16 15l-18 12l-18 11l-20 9l-20 7l-20 5l-20 2l-18 1l-22 -1l-23 -4l-23 -7l-23 -9l-22 -12l-21 -15l-18 -17l-13 -15v-362
q0 -8 -5.5 -13.5t-13.5 -5.5t-13.5 5.5t-5.5 13.5v461q0 8 5.5 13t13.5 5t13.5 -5t5.5 -13v-45l7 6l2 2l22 16q1 1 2 1l24 14h2l25 11h2l25 7q1 1 2 1l25 4h2l24 1l23 -1l23 -3l23 -5l23 -8h2l21 -10q1 0 1 -0.5t1 -0.5l20 -12l1 -1l20 -14l1 -1l18 -16l1 -1l8 -9l3 5
q1 0 1 0.5t1 0.5l20 19l2 2l23 16q0 1 2 1l24 14h2l24 11h2l26 7q0 1 2 1l25 4h2l24 1l22 -1l23 -3l24 -5l23 -8h2l21 -10l1 -1l20 -12q2 0 2 -1l19 -14q1 0 1 -0.5t1 -0.5l17 -16q1 0 1 -0.5t1 -0.5l16 -18l1 -1l14 -20l1 -1l12 -20q0 -2 1 -2l9 -21l8 -23l6 -24l3 -22
l1 -23v-1z" />
    <glyph glyph-name="period" unicode="." horiz-adv-x="87" 
d="M20 19q0 10 6.5 16.5t16.5 6.5t17 -6.5t7 -16.5t-7 -16t-17 -6t-16.5 6t-6.5 16z" />
    <glyph glyph-name="exclam" unicode="!" 
d="M58 100q-8 0 -13.5 5.5t-5.5 13.5v552q0 8 5.5 13t13.5 5t13.5 -5t5.5 -13v-552q0 -8 -5.5 -13.5t-13.5 -5.5zM36 20q0 -10 6.5 -16t16.5 -6t17 6t7 16t-7 16.5t-17 6.5t-16.5 -6.5t-6.5 -16.5z" />
    <glyph glyph-name="colon" unicode=":" 
d="M36 20q0 10 6.5 16.5t16.5 6.5t17 -6.5t7 -16.5t-7 -16t-17 -6t-16.5 6t-6.5 16zM34 475q0 10 6.5 16.5t16.5 6.5t17 -6.5t7 -16.5t-7 -16t-17 -6t-16.5 6t-6.5 16z" />
    <glyph glyph-name="question" unicode="?" horiz-adv-x="511" 
d="M173 20q0 -10 6.5 -16t16.5 -6t17 6t7 16t-7 16.5t-17 6.5t-16.5 -6.5t-6.5 -16.5zM193 89h-2q-8 1 -13 6.5t-4 13.5l1 12v3l2 11l1 2l3 11l1 2l5 10q0 1 0.5 1t0.5 1l6 10l1 1l7 9l2 2l17 17l2 2l138 98l21 19l18 22l15 24l12 27l8 31l2 36v18l-3 19l-5 19l-6 18l-8 18
l-10 17l-12 17l-14 16l-16 14l-17 12l-17 10l-18 8l-20 7l-19 4l-18 3h-17l-27 -1l-27 -6l-27 -10l-26 -13l-24 -18l-22 -22l-18 -24l-14 -27q-4 -7 -11 -9.5t-14 1.5q-8 4 -10 11t2 14l15 29q0 1 0.5 1t0.5 1l20 27l2 2l23 23l2 2l27 20q1 1 2 1l29 15q0 1 2 1l30 11
q1 0 2 1l30 6h2l29 2h2l20 -1l22 -3l22 -5l22 -7l2 -1l20 -9q1 -1 2 -1l19 -11q1 -1 2 -1l18 -14q1 0 1 -0.5t1 -0.5l16 -15l2 -2l15 -16q0 -1 0.5 -1t0.5 -1l14 -18q0 -1 1 -2l11 -19q0 -1 1 -2l9 -20l7 -22l6 -22l3 -22l1 -22v-2l-3 -39q0 -2 -1 -3l-8 -34q0 -1 -0.5 -1.5
t-0.5 -1.5l-13 -30q-1 -1 -1 -2l-17 -27l-2 -2l-20 -23l-1 -1l-22 -21l-2 -2l-138 -98l-15 -15l-11 -15l-3 -8l-3 -8l-2 -9l-1 -11q0 -8 -5 -13t-13 -5z" />
    <glyph glyph-name="comma" unicode="," 
d="M58 -52q-8 0 -13.5 5.5t-5.5 13.5v61q0 8 5.5 13t13.5 5t13.5 -5t5.5 -13v-61q0 -8 -5.5 -13.5t-13.5 -5.5z" />
    <glyph glyph-name="semicolon" unicode=";" 
d="M34 475q0 10 6.5 16.5t16.5 6.5t17 -6.5t7 -16.5t-7 -16t-17 -6t-16.5 6t-6.5 16zM58 -52q-8 0 -13.5 5.5t-5.5 13.5v61q0 8 5.5 13t13.5 5t13.5 -5t5.5 -13v-61q0 -8 -5.5 -13.5t-13.5 -5.5z" />
    <glyph glyph-name="quotedbl" unicode="&#x22;" horiz-adv-x="169" 
d="M50 399q-8 0 -13.5 5.5t-5.5 13.5v61q0 8 5.5 13t13.5 5t13.5 -5t5.5 -13v-61q0 -8 -5.5 -13.5t-13.5 -5.5zM126 397q-8 0 -13.5 5.5t-5.5 13.5v61q0 8 5.5 13t13.5 5t13.5 -5t5.5 -13v-61q0 -8 -5.5 -13.5t-13.5 -5.5z" />
    <glyph glyph-name="quotesingle" unicode="'" horiz-adv-x="99" 
d="M50 399q-8 0 -13.5 5.5t-5.5 13.5v61q0 8 5.5 13t13.5 5t13.5 -5t5.5 -13v-61q0 -8 -5.5 -13.5t-13.5 -5.5z" />
    <glyph glyph-name="parenleft" unicode="(" horiz-adv-x="153" 
d="M149 -105q-7 0 -11 3l-14 12l-2 2l-11 13l-2 2l-11 17q-1 1 -1 2l-10 19q0 1 -0.5 1t-0.5 1l-18 47v2l-15 55v2v556v2l15 55v2l18 47l1 2l10 20l1 1l11 17l2 2l11 14q1 0 1 0.5t1 0.5l14 12q6 5 13.5 3.5t12.5 -7.5t4 -13.5t-8 -12.5l-10 -9l-10 -11l-10 -15l-9 -18
l-17 -45l-14 -54v-542l14 -54l17 -45l9 -17l10 -15l15 -17l5 -4q7 -5 8 -12t-4 -14q-6 -7 -15 -7z" />
    <glyph glyph-name="parenright" unicode=")" horiz-adv-x="153" 
d="M8 809q6 0 11 -3l14 -12l2 -2l11 -13l2 -2l11 -17q1 -1 1 -2l10 -19q0 -1 0.5 -1t0.5 -1l18 -47v-2l15 -55v-2v-556v-2l-15 -55v-2l-18 -47l-1 -2l-10 -20l-1 -1l-11 -17l-2 -2l-11 -14q-1 0 -1 -0.5t-1 -0.5l-14 -12q-6 -5 -13.5 -3.5t-12.5 7.5t-4 13.5t8 12.5l10 9
l10 11l10 15l9 18l17 45l14 54v542l-14 54l-17 45l-9 17l-10 15l-15 17l-5 4q-7 5 -8 12t4 14q6 7 15 7z" />
    <glyph glyph-name="hyphen" unicode="-" horiz-adv-x="378" 
d="M314 298q0 -8 -5.5 -13.5t-13.5 -5.5h-217q-8 0 -13 5.5t-5 13.5t5 13.5t13 5.5h217q8 0 13.5 -5.5t5.5 -13.5z" />
    <glyph glyph-name="plus" unicode="+" horiz-adv-x="833" 
 />
    <glyph glyph-name="asterisk" unicode="*" horiz-adv-x="833" 
 />
    <glyph glyph-name="equal" unicode="=" horiz-adv-x="833" 
 />
    <glyph glyph-name="slash" unicode="/" horiz-adv-x="448" 
d="M53 2q-6 0 -8 2q-8 3 -10 10.5t1 14.5l339 652q3 7 10.5 9.5t14.5 -1.5t9.5 -11t-1.5 -14l-338 -652q-4 -10 -17 -10z" />
    <glyph glyph-name="l" unicode="l" 
d="M58 7q-8 0 -13.5 5.5t-5.5 13.5v645q0 8 5.5 13t13.5 5t13.5 -5t5.5 -13v-645q0 -8 -5.5 -13.5t-13.5 -5.5z" />
    <glyph glyph-name="M" unicode="M" horiz-adv-x="859" 
d="M813 668v-645q0 -8 -5.5 -13t-13.5 -5t-13 5t-5 13v579l-334 -543h-1v-1l-1 -1l-1 -1q-1 -1 -2 -1v-1l-1 -1h-1h-1q0 -1 -1 -1h-1q0 -1 -1 -1h-1h-1h-1h-1h-1h-1h-1h-1h-1h-1h-1v1h-1h-1l-1 1h-1q-1 1 -2 1v1l-2 2l-1 1l-1 1l-334 543v-579q0 -8 -5.5 -13t-13.5 -5
t-13.5 5t-5.5 13v645v1v1l1 1v2v1l1 1v1q0 1 1 1v1l1 1v1h1v1q1 0 1 1h1v1h1q0 1 1 1h1q0 1 1 1t1 1h1h1l1 1h1h1h1h1h2h2q1 0 1 -1h1h1l1 -1h1l1 -1h1l1 -1q0 -1 1 -1l1 -1q0 -1 1 -1v-1q1 0 1 -1l353 -573l352 573h1v1q0 1 1 1v1h1v1q1 0 1 1h1l1 1l1 1h1l1 1h2l1 1h1h1h1
h1h1h1h1h1h1v-1h1h1l1 -1h1l1 -1q1 0 1 -1h1l1 -1q1 0 1 -1l1 -1q0 -1 1 -1v-1h1v-2l1 -1v-1l1 -1v-2v-2v-1z" />
    <glyph glyph-name="L" unicode="L" horiz-adv-x="532" 
d="M495 2h-461q-8 0 -13.5 5.5t-5.5 13.5v645q0 8 5.5 13.5t13.5 5.5t13.5 -5.5t5.5 -13.5v-626h442q8 0 13.5 -5.5t5.5 -13.5t-5.5 -13.5t-13.5 -5.5z" />
  </font>
</defs>
</svg>
