<svg data-v-fde0c5aa="" xmlns="http://www.w3.org/2000/svg" viewBox="0 0 300 300" class="iconLeftSlogan"><!----><defs data-v-fde0c5aa=""><!----></defs><rect data-v-fde0c5aa="" fill="transparent" x="0" y="0" width="300px" height="300px" class="logo-background-square"></rect><defs data-v-fde0c5aa=""><!----></defs><g data-v-fde0c5aa="" id="1d79e8ac-1124-4a90-9a68-2e188c404c3c" fill="#000000" transform="matrix(1.4788647996115685,0,0,1.4788647996115685,89.82703333699041,125.45536428681716)"><path d="M9.17 10.25L8.25 10.12C7.99 11.80 7 12.84 5.05 12.84C2.70 12.84 1.60 10.98 1.60 8.69C1.60 6.61 2.56 4.48 5.19 4.48C7.08 4.48 8.04 5.70 8.20 7.01L9.11 6.90C8.99 5.38 7.81 3.64 5.21 3.64C1.99 3.64 0.66 6.17 0.66 8.71C0.66 11.61 2.27 13.66 5.05 13.66C7.52 13.66 8.86 12.33 9.17 10.25ZM11.66 13.50L11.66 9.76L13.61 9.76C14.49 9.76 15.37 9.67 15.90 9.46C16.98 9.06 17.58 8.09 17.58 6.75C17.58 5.40 16.97 4.24 15.65 3.98C15.27 3.91 14.39 3.82 13.66 3.82L10.78 3.82L10.78 13.50ZM11.66 8.90L11.66 4.68L13.66 4.68C14.10 4.68 14.78 4.70 15.13 4.76C16.06 4.93 16.60 5.74 16.60 6.80C16.60 7.69 16.17 8.43 15.54 8.67C15.11 8.83 14.32 8.90 13.69 8.90ZM26.57 13.50L27.37 13.50L27.37 8.65L23.49 8.65L23.49 9.52L26.46 9.52C26.46 11.80 25.00 12.84 23.30 12.84C20.75 12.84 19.60 10.84 19.60 8.69C19.60 6.37 20.79 4.48 23.24 4.48C25.03 4.48 26.03 5.46 26.35 7L27.24 6.89C26.91 4.79 25.47 3.64 23.24 3.64C20.45 3.64 18.66 5.66 18.66 8.69C18.66 11.45 20.22 13.66 23.23 13.66C24.91 13.66 26.14 12.87 26.57 11.62ZM32.34 13.50L34.73 13.50C35.73 13.50 36.89 13.34 37.60 13.06C39.34 12.35 40.03 10.68 40.03 8.57C40.03 6.52 39.31 4.97 37.79 4.27C37.09 3.93 36.05 3.82 34.92 3.82L32.34 3.82ZM33.22 12.64L33.22 4.68L35.08 4.68C36.01 4.68 36.95 4.83 37.48 5.14C38.64 5.81 39.10 7.18 39.10 8.57C39.10 10.32 38.53 11.62 37.41 12.19C36.78 12.50 35.70 12.64 34.96 12.64ZM47.87 11.38L47.04 11.20C46.79 12.15 45.95 12.88 44.69 12.88C43.65 12.88 42.17 12.32 42.15 10.19L47.89 10.19C47.89 7.62 46.68 6.33 44.62 6.33C42.76 6.33 41.26 7.71 41.26 9.97C41.26 12.19 42.49 13.66 44.66 13.66C46.37 13.66 47.53 12.71 47.87 11.38ZM42.15 9.51C42.29 7.91 43.36 7.11 44.60 7.11C46.27 7.11 46.90 8.19 47.00 9.51ZM52.26 13.50L55.13 6.51L54.22 6.51C52.42 10.96 52.08 11.79 51.81 12.50C51.55 11.79 51.18 10.89 49.42 6.51L48.47 6.51L51.32 13.50ZM62.20 11.38L61.38 11.20C61.12 12.15 60.28 12.88 59.02 12.88C57.99 12.88 56.50 12.32 56.49 10.19L62.23 10.19C62.23 7.62 61.01 6.33 58.95 6.33C57.09 6.33 55.59 7.71 55.59 9.97C55.59 12.19 56.83 13.66 59.00 13.66C60.70 13.66 61.87 12.71 62.20 11.38ZM56.49 9.51C56.63 7.91 57.69 7.11 58.94 7.11C60.61 7.11 61.24 8.19 61.33 9.51ZM64.69 13.50L64.69 3.82L63.85 3.82L63.85 13.50ZM73.30 10.01C73.30 7.70 71.81 6.33 69.93 6.33C68.00 6.33 66.37 7.71 66.37 9.98C66.37 12.26 67.77 13.66 69.90 13.66C71.76 13.66 73.30 12.26 73.30 10.01ZM72.44 10.00C72.44 11.87 71.22 12.87 69.90 12.87C68.45 12.87 67.26 11.87 67.26 9.95C67.26 8.05 68.53 7.13 69.92 7.13C71.23 7.13 72.44 8.06 72.44 10.00ZM75.82 16.03L75.82 12.21C76.23 13.05 77.08 13.66 78.43 13.66C80.32 13.66 81.68 12.35 81.68 9.98C81.68 7.69 80.43 6.33 78.60 6.33C77.15 6.33 76.17 7.10 75.82 7.95L75.82 6.51L74.98 6.51L74.98 16.03ZM75.81 9.95C75.81 8.16 76.93 7.08 78.40 7.08C79.79 7.08 80.81 8.13 80.81 10.00C80.81 11.91 79.70 12.88 78.36 12.88C76.92 12.88 75.81 12.05 75.81 9.95ZM84.20 13.50L84.20 9.83C84.20 9.17 84.28 8.60 84.56 8.15C84.84 7.67 85.54 7.14 86.41 7.14C87.14 7.14 87.46 7.34 87.75 7.64C88.03 7.92 88.21 8.53 88.21 9.46L88.21 13.50L89.07 13.50L89.07 9.74C89.07 9.06 89.19 8.55 89.46 8.11C89.74 7.64 90.40 7.14 91.24 7.14C91.95 7.14 92.33 7.35 92.61 7.67C92.89 7.98 93.06 8.58 93.06 9.51L93.06 13.50L93.91 13.50L93.91 9.37C93.91 8.32 93.74 7.62 93.45 7.21C93.04 6.65 92.41 6.34 91.48 6.34C90.13 6.34 89.22 7.13 88.93 8.02C88.66 6.87 87.89 6.34 86.69 6.34C85.48 6.34 84.46 7.04 84.20 7.91L84.20 6.51L83.36 6.51L83.36 13.50ZM102.14 11.38L101.32 11.20C101.07 12.15 100.23 12.88 98.97 12.88C97.93 12.88 96.45 12.32 96.43 10.19L102.17 10.19C102.17 7.62 100.95 6.33 98.90 6.33C97.03 6.33 95.54 7.71 95.54 9.97C95.54 12.19 96.77 13.66 98.94 13.66C100.65 13.66 101.81 12.71 102.14 11.38ZM96.43 9.51C96.57 7.91 97.64 7.11 98.88 7.11C100.55 7.11 101.18 8.19 101.28 9.51ZM104.64 13.50L104.64 9.91C104.64 9.21 104.72 8.62 104.99 8.18C105.25 7.71 105.92 7.14 106.95 7.14C107.59 7.14 108.04 7.31 108.35 7.63C108.67 7.98 108.82 8.57 108.82 9.58L108.82 13.50L109.69 13.50L109.69 9.45C109.69 8.36 109.54 7.63 109.20 7.20C108.77 6.65 108.16 6.34 107.14 6.34C105.90 6.34 104.90 7.07 104.64 7.92L104.64 6.51L103.80 6.51L103.80 13.50ZM115.07 13.44L114.88 12.73C114.69 12.81 114.34 12.89 113.99 12.89C113.47 12.89 113.20 12.67 113.09 12.32C113.02 12.08 113.01 11.70 113.01 11.20L113.01 7.24L114.79 7.24L114.79 6.51L113.01 6.51L113.01 4.62L112.15 4.62L112.15 6.51L111.06 6.51L111.06 7.24L112.15 7.24L112.15 11.27C112.15 11.84 112.17 12.26 112.28 12.68C112.48 13.38 113.09 13.66 113.79 13.66C114.31 13.66 114.76 13.57 115.07 13.44Z"></path></g><defs data-v-fde0c5aa=""><linearGradient data-v-fde0c5aa="" gradientTransform="rotate(25)" id="a365b423-11b9-44f4-8f1d-6a6023e6b16e" x1="0%" y1="0%" x2="100%" y2="0%"><stop data-v-fde0c5aa="" offset="0%" stop-color="#8E36DE" stop-opacity="1"></stop><stop data-v-fde0c5aa="" offset="100%" stop-color="#F7CFF5" stop-opacity="1"></stop></linearGradient></defs><g data-v-fde0c5aa="" id="d50f80ea-74c5-4ea7-b658-b77afec97361" stroke="none" fill="url(#a365b423-11b9-44f4-8f1d-6a6023e6b16e)" transform="matrix(0.38574575656651855,0,0,0.38574575656651855,39.61425424343348,130.71271070017082)"><path d="M95.1 45.2c-1.6 0-3 1-3.6 2.4H58.2v-3.8H69l9-9c.5.2 1 .3 1.5.3 2.1 0 3.8-1.7 3.8-3.8s-1.7-3.8-3.8-3.8c-2.1 0-3.8 1.7-3.8 3.8 0 .5.1 1 .3 1.5L67.8 41h-9.7v-5l8.2-8.2c.5.2 1 .3 1.5.3 2.1 0 3.8-1.7 3.8-3.8s-1.7-3.8-3.8-3.8c-2.1 0-3.8 1.7-3.8 3.8 0 .5.1 1 .3 1.5l-9 9v6.1h-3.8V8.4c1.4-.6 2.4-1.9 2.4-3.6C53.8 2.7 52.1 1 50 1c-2.1 0-3.8 1.7-3.8 3.8 0 1.6 1 3 2.4 3.6v32.5h-3.8V31l-9-9c.2-.5.3-1 .3-1.5 0-2.1-1.7-3.8-3.8-3.8-2.1 0-3.8 1.7-3.8 3.8s1.7 3.8 3.8 3.8c.5 0 1-.1 1.5-.3l8.2 8.2v8.7h-9.7l-8.2-8.2c.2-.5.3-1 .3-1.5 0-2.1-1.7-3.8-3.8-3.8s-3.8 1.7-3.8 3.8 1.7 3.8 3.8 3.8c.5 0 1-.1 1.5-.3l9 9H42v3.8H8.4c-.6-1.4-1.9-2.4-3.6-2.4C2.7 45.2 1 46.9 1 49c0 2.1 1.7 3.8 3.8 3.8 1.6 0 3-1 3.6-2.4h33.4v3.8h-7l-9 9c-.5-.2-1-.3-1.5-.3-2.1 0-3.8 1.7-3.8 3.8 0 2.1 1.7 3.8 3.8 3.8s3.8-1.7 3.8-3.8c0-.5-.1-1-.3-1.5L36 57h5.8v10.6l-8.2 8.2c-.5-.2-1-.3-1.5-.3-2.1 0-3.8 1.7-3.8 3.8 0 2.1 1.7 3.8 3.8 3.8 2.1 0 3.8-1.7 3.8-3.8 0-.5-.1-1-.3-1.5l9-9V57.2h3.8v34.4c-1.4.6-2.4 1.9-2.4 3.6 0 2.1 1.7 3.8 3.8 3.8 2.1 0 3.8-1.7 3.8-3.8 0-1.6-1-3-2.4-3.6V57.2H55v8l9 9c-.2.5-.3 1-.3 1.5 0 2.1 1.7 3.8 3.8 3.8 2.1 0 3.8-1.7 3.8-3.8s-1.7-3.8-3.8-3.8c-.5 0-1 .1-1.5.3L58.2 64v-6.8H64l8.2 8.2c-.2.5-.3 1-.3 1.5 0 2.1 1.7 3.8 3.8 3.8s3.8-1.7 3.8-3.8c0-2.1-1.7-3.8-3.8-3.8-.5 0-1 .1-1.5.3l-9-9h-7v-3.8h33.4c.6 1.4 1.9 2.4 3.6 2.4 2.1 0 3.8-1.7 3.8-3.8 0-2.3-1.7-4-3.9-4zm-15.5-15c.5 0 1 .4 1 1 0 .5-.4 1-1 1s-1-.4-1-1 .5-1 1-1zm-11.7-6.9c.5 0 1 .4 1 1 0 .5-.4 1-1 1s-1-.4-1-1 .4-1 1-1zm-36.7-2.9c0-.5.4-1 1-1 .5 0 1 .4 1 1 0 .5-.4 1-1 1s-1-.5-1-1zM19.4 31.2c0-.5.4-1 1-1 .5 0 1 .4 1 1 0 .5-.4 1-1 1-.5-.1-1-.5-1-1zm4.8 36.7c-.5 0-1-.4-1-1s.4-1 1-1c.5 0 1 .4 1 1s-.4 1-1 1zm7.9 12.7c-.5 0-1-.4-1-1s.4-1 1-1c.5 0 1 .4 1 1s-.4 1-1 1zm36.7-4.8c0 .5-.4 1-1 1s-1-.4-1-1 .4-1 1-1 1 .4 1 1zm7.9-8.9c0 .5-.4 1-1 1s-1-.4-1-1 .4-1 1-1 1 .5 1 1zM55.3 43.8v3.8h-3.8v-3.8h3.8zM50 3.9c.5 0 1 .4 1 1s-.4 1-1 1c-.5 0-1-.4-1-1s.5-1 1-1zm-5.3 39.9h3.8v3.8h-3.8v-3.8zM4.9 50c-.5 0-1-.4-1-1s.4-1 1-1 1 .4 1 1-.5 1-1 1zm39.8 4.3v-3.8h3.8v3.8h-3.8zM50 96.1c-.5 0-1-.4-1-1s.4-1 1-1c.5 0 1 .4 1 1s-.5 1-1 1zm5.3-41.8h-3.8v-3.8h3.8v3.8zM95.1 50c-.5 0-1-.4-1-1s.4-1 1-1 1 .4 1 1-.4 1-1 1z"></path></g><defs data-v-fde0c5aa=""><!----></defs><g data-v-fde0c5aa="" id="9e5c6eed-2c7d-4b20-a155-d06d4ee0feae" fill="#000000" transform="matrix(0.4626532107154883,0,0,0.4626532107154883,90.56250448277117,157.40811203649477)"><path d="M8.43 12.21C8.40 12.18 8.36 12.15 8.32 12.15C8.29 12.15 8.27 12.15 8.25 12.17C8.23 12.18 8.20 12.21 8.18 12.22C7.98 12.40 7.77 12.56 7.57 12.70C7.38 12.84 7.17 12.94 6.93 13.03C6.69 13.13 6.44 13.20 6.16 13.24C5.88 13.29 5.57 13.31 5.22 13.31C4.66 13.31 4.12 13.22 3.64 13.01C3.15 12.81 2.74 12.52 2.39 12.14C2.04 11.76 1.75 11.28 1.55 10.74C1.36 10.19 1.26 9.56 1.26 8.86C1.26 8.18 1.36 7.56 1.55 7.01C1.76 6.47 2.04 6.01 2.41 5.61C2.77 5.24 3.21 4.94 3.71 4.73C4.21 4.52 4.76 4.42 5.36 4.42C6.26 4.42 7.08 4.56 7.81 4.89C7.85 5.78 7.90 6.30 7.90 6.41C7.91 6.64 7.99 6.75 8.19 6.75L8.53 6.75L8.53 4.51C7.35 4.03 6.29 3.81 5.36 3.81C4.65 3.81 4.00 3.92 3.40 4.17C2.81 4.42 2.28 4.76 1.86 5.21C1.43 5.66 1.11 6.19 0.87 6.80C0.63 7.42 0.52 8.11 0.52 8.86C0.52 9.63 0.64 10.32 0.87 10.95C1.09 11.58 1.41 12.10 1.82 12.54C2.23 12.99 2.72 13.33 3.29 13.57C3.86 13.80 4.48 13.93 5.17 13.93C5.57 13.93 5.95 13.90 6.30 13.83C6.64 13.76 6.96 13.66 7.25 13.54C7.53 13.41 7.80 13.26 8.04 13.09C8.27 12.91 8.50 12.73 8.71 12.50ZM25.03 3.92L24.32 3.92L22.96 3.92L22.96 4.19C22.96 4.34 23.06 4.42 23.24 4.44L23.41 4.44C23.51 4.44 23.65 4.45 23.81 4.45C23.98 4.45 24.15 4.47 24.32 4.47L24.32 10.04C24.32 10.50 24.25 10.92 24.11 11.33C23.97 11.73 23.77 12.08 23.51 12.38C23.24 12.67 22.93 12.89 22.55 13.06C22.18 13.23 21.76 13.31 21.28 13.31C20.80 13.31 20.37 13.23 19.99 13.06C19.61 12.89 19.29 12.66 19.04 12.36C18.77 12.07 18.59 11.72 18.45 11.33C18.31 10.93 18.24 10.50 18.24 10.04L18.24 4.47C18.41 4.47 18.58 4.45 18.75 4.45C18.91 4.45 19.05 4.44 19.15 4.44L19.32 4.44C19.50 4.42 19.60 4.34 19.60 4.19L19.60 3.92L18.24 3.92L17.53 3.92L16.35 3.92L16.35 4.19C16.35 4.34 16.44 4.42 16.62 4.44L16.76 4.44C16.83 4.44 16.93 4.45 17.07 4.45C17.21 4.45 17.36 4.47 17.53 4.47L17.53 10.04C17.53 10.58 17.61 11.09 17.78 11.56C17.95 12.04 18.20 12.46 18.52 12.81C18.84 13.16 19.25 13.44 19.71 13.64C20.17 13.83 20.71 13.93 21.28 13.93C21.85 13.93 22.37 13.83 22.83 13.64C23.30 13.44 23.70 13.16 24.02 12.81C24.35 12.46 24.60 12.04 24.77 11.56C24.93 11.09 25.03 10.58 25.03 10.04L25.03 4.47C25.20 4.47 25.34 4.45 25.48 4.45C25.62 4.45 25.73 4.44 25.80 4.44L25.93 4.44C26.11 4.42 26.21 4.34 26.21 4.19L26.21 3.92ZM39.96 9.91C39.82 9.65 39.62 9.39 39.38 9.21C39.14 9.03 38.89 8.88 38.60 8.75C38.30 8.62 37.98 8.51 37.67 8.41C37.37 8.32 37.06 8.20 36.76 8.11C36.47 7.99 36.20 7.87 35.97 7.71C35.73 7.56 35.55 7.38 35.41 7.15C35.27 6.93 35.18 6.65 35.18 6.31C35.18 6.06 35.24 5.82 35.34 5.59C35.43 5.35 35.57 5.15 35.76 4.97C35.94 4.79 36.16 4.65 36.44 4.55C36.72 4.45 37.03 4.40 37.39 4.40C38.07 4.40 38.68 4.51 39.24 4.75C39.28 5.54 39.31 5.99 39.31 6.06C39.33 6.29 39.41 6.41 39.61 6.41L39.94 6.41L39.94 4.38C39.06 4.00 38.22 3.81 37.39 3.81C36.93 3.81 36.53 3.88 36.16 4.02C35.80 4.16 35.50 4.34 35.27 4.58C35.03 4.82 34.83 5.08 34.71 5.39C34.58 5.70 34.52 6.02 34.52 6.36C34.52 6.78 34.59 7.14 34.73 7.42C34.87 7.70 35.07 7.92 35.31 8.12C35.55 8.32 35.80 8.46 36.09 8.58C36.39 8.71 36.71 8.82 37.02 8.92C37.32 9.02 37.62 9.11 37.93 9.21C38.22 9.31 38.49 9.45 38.72 9.60C38.96 9.76 39.14 9.94 39.28 10.16C39.42 10.39 39.49 10.68 39.49 11.03C39.49 11.35 39.44 11.66 39.33 11.94C39.21 12.22 39.06 12.46 38.85 12.67C38.64 12.88 38.37 13.05 38.07 13.16C37.76 13.29 37.41 13.33 37.02 13.33C36.23 13.33 35.57 13.20 35.04 12.95C35.03 12.75 35.03 12.54 35.01 12.32C35 12.10 35 11.91 34.99 11.76C34.97 11.61 34.97 11.52 34.97 11.51C34.96 11.28 34.86 11.17 34.66 11.17L34.33 11.17L34.33 13.02L34.33 13.20L34.33 13.38C35.18 13.75 36.06 13.93 36.99 13.93C37.49 13.93 37.94 13.85 38.33 13.69C38.72 13.54 39.06 13.31 39.33 13.05C39.59 12.78 39.82 12.46 39.96 12.10C40.10 11.73 40.17 11.34 40.17 10.92C40.17 10.51 40.10 10.18 39.96 9.91ZM55.94 3.92L55.75 3.92L48.45 3.92L48.24 3.92L48.15 3.92L48.15 5.96L48.50 5.96C48.69 5.96 48.78 5.85 48.79 5.63C48.79 5.53 48.82 5.17 48.85 4.52L51.74 4.52L51.74 13.26C51.58 13.26 51.44 13.27 51.30 13.27C51.16 13.27 51.04 13.29 50.97 13.29L50.85 13.29C50.67 13.30 50.57 13.38 50.57 13.54L50.57 13.82L51.74 13.82L52.46 13.82L53.65 13.82L53.65 13.54C53.65 13.38 53.55 13.30 53.37 13.29L53.23 13.29C53.16 13.29 53.06 13.27 52.92 13.27C52.78 13.27 52.63 13.26 52.46 13.26L52.46 4.52L55.34 4.52C55.38 5.24 55.40 5.60 55.40 5.63C55.41 5.85 55.51 5.96 55.71 5.96L56.04 5.96L56.04 3.92ZM73.33 8.86C73.33 8.11 73.21 7.41 72.98 6.79C72.76 6.17 72.44 5.64 72.02 5.19C71.60 4.75 71.11 4.40 70.53 4.16C69.96 3.92 69.30 3.79 68.60 3.79C67.90 3.79 67.27 3.92 66.70 4.16C66.12 4.40 65.62 4.75 65.20 5.19C64.78 5.64 64.46 6.17 64.23 6.79C64.01 7.41 63.88 8.11 63.88 8.86C63.88 9.63 64.01 10.33 64.23 10.95C64.46 11.56 64.78 12.10 65.20 12.54C65.62 12.99 66.12 13.33 66.70 13.57C67.27 13.80 67.90 13.93 68.60 13.93C69.30 13.93 69.96 13.80 70.53 13.57C71.11 13.33 71.60 12.99 72.02 12.54C72.44 12.10 72.76 11.56 72.98 10.95C73.21 10.33 73.33 9.63 73.33 8.86ZM72.58 8.86C72.58 9.56 72.49 10.18 72.30 10.72C72.10 11.27 71.83 11.75 71.48 12.12C71.13 12.50 70.71 12.81 70.22 13.01C69.73 13.20 69.20 13.30 68.60 13.30C68.01 13.30 67.48 13.20 66.99 13.01C66.50 12.81 66.08 12.50 65.73 12.12C65.38 11.75 65.10 11.27 64.90 10.72C64.71 10.18 64.62 9.56 64.62 8.86C64.62 8.18 64.71 7.55 64.90 7.00C65.10 6.45 65.38 5.98 65.73 5.60C66.08 5.22 66.50 4.91 66.99 4.72C67.48 4.52 68.01 4.41 68.60 4.41C69.20 4.41 69.73 4.52 70.22 4.72C70.71 4.91 71.13 5.22 71.48 5.60C71.83 5.98 72.10 6.45 72.30 7.00C72.49 7.55 72.58 8.18 72.58 8.86ZM93.20 4.44C93.38 4.42 93.48 4.34 93.48 4.19L93.48 3.92L92.30 3.92L91.80 3.92C91.73 3.92 91.69 3.92 91.64 3.93C91.60 3.95 91.57 3.99 91.53 4.05L87.64 10.92C87.60 10.99 87.57 11.06 87.54 11.13C87.51 11.20 87.49 11.28 87.46 11.35C87.40 11.20 87.35 11.06 87.28 10.93L83.27 4.05C83.23 3.99 83.20 3.95 83.16 3.93C83.12 3.92 83.08 3.92 83.01 3.92L82.52 3.92L81.33 3.92L81.33 4.19C81.33 4.34 81.42 4.42 81.61 4.44L81.75 4.44C81.82 4.44 81.91 4.45 82.05 4.45C82.19 4.45 82.35 4.47 82.52 4.47L82.52 13.26C82.35 13.26 82.19 13.27 82.05 13.27C81.91 13.27 81.82 13.29 81.75 13.29L81.61 13.29C81.42 13.30 81.33 13.38 81.33 13.54L81.33 13.82L82.52 13.82L83.13 13.82L84.35 13.82L84.35 13.54C84.35 13.38 84.25 13.30 84.07 13.29L83.93 13.29C83.86 13.29 83.75 13.27 83.61 13.27C83.47 13.27 83.30 13.26 83.13 13.26L83.13 5.38C83.13 5.25 83.13 5.12 83.12 4.98L87.12 11.91C87.19 12.04 87.29 12.10 87.40 12.10L87.51 12.10C87.64 12.10 87.72 12.04 87.79 11.91L91.69 4.98C91.67 5.12 91.67 5.25 91.67 5.38L91.67 13.26C91.50 13.26 91.34 13.27 91.20 13.27C91.06 13.27 90.94 13.29 90.87 13.29L90.73 13.29C90.55 13.30 90.45 13.38 90.45 13.54L90.45 13.82L91.67 13.82L92.30 13.82L93.48 13.82L93.48 13.54C93.48 13.38 93.38 13.30 93.20 13.29L93.07 13.29C93.00 13.29 92.89 13.27 92.75 13.27C92.61 13.27 92.47 13.26 92.30 13.26L92.30 4.47C92.47 4.47 92.61 4.45 92.75 4.45C92.89 4.45 93.00 4.44 93.07 4.44ZM126.00 3.92L125.45 3.92L125.41 3.92L123.94 3.92L123.94 4.19C123.94 4.34 124.03 4.42 124.21 4.44L124.33 4.44C124.39 4.44 124.49 4.45 124.63 4.45C124.77 4.45 124.91 4.47 125.08 4.47L122.70 12.24C122.67 12.33 122.64 12.43 122.63 12.54C122.61 12.66 122.58 12.75 122.56 12.87C122.53 12.75 122.51 12.63 122.49 12.53L122.40 12.24L119.60 4.10C119.57 4.05 119.55 3.99 119.50 3.96C119.46 3.93 119.41 3.92 119.34 3.92L119.14 3.92C119.07 3.92 119.01 3.93 118.97 3.98C118.93 4.02 118.89 4.05 118.87 4.10L116.07 12.25C116.05 12.35 116.02 12.43 115.99 12.54C115.96 12.64 115.95 12.75 115.92 12.88C115.91 12.78 115.88 12.67 115.85 12.54C115.84 12.43 115.81 12.33 115.78 12.24L113.40 4.47C113.57 4.47 113.71 4.45 113.83 4.45C113.96 4.45 114.04 4.44 114.10 4.44L114.21 4.44C114.39 4.42 114.49 4.34 114.49 4.19L114.49 3.92L113.02 3.92L112.43 3.92L111.83 3.92L111.83 4.19C111.83 4.34 111.93 4.42 112.11 4.44L112.21 4.44C112.25 4.44 112.29 4.45 112.36 4.45C112.43 4.45 112.52 4.47 112.60 4.47L115.56 13.82L116.19 13.82L119.13 5.22C119.17 5.11 119.20 5.00 119.22 4.87C119.25 5.00 119.28 5.11 119.32 5.22L122.25 13.82L122.89 13.82L125.83 4.47C125.92 4.47 125.99 4.45 126.06 4.45C126.13 4.45 126.18 4.44 126.22 4.44L126.32 4.44C126.50 4.42 126.59 4.34 126.59 4.19L126.59 3.92ZM135.83 3.92L134.64 3.92L134.64 4.19C134.64 4.34 134.74 4.42 134.92 4.44L135.06 4.44C135.13 4.44 135.23 4.45 135.37 4.45C135.51 4.45 135.66 4.47 135.83 4.47L135.83 13.26C135.66 13.26 135.51 13.27 135.37 13.27C135.23 13.27 135.13 13.29 135.06 13.29L134.92 13.29C134.74 13.30 134.65 13.38 134.65 13.54L134.65 13.82L135.83 13.82L141.76 13.82L141.76 13.22L141.76 11.76L141.41 11.76C141.22 11.76 141.13 11.89 141.12 12.11C141.12 12.14 141.11 12.19 141.11 12.29C141.11 12.39 141.11 12.53 141.09 12.74C141.08 12.95 141.06 13.09 141.06 13.22L136.54 13.22L136.54 9.09L140.49 9.09L140.49 8.51L136.54 8.51L136.54 4.51L141.06 4.51C141.09 5.12 141.12 5.50 141.12 5.63C141.13 5.85 141.22 5.96 141.41 5.96L141.76 5.96L141.76 4.51L141.76 3.92ZM157.46 9.52C157.04 9.11 156.44 8.86 155.65 8.75C155.97 8.67 156.25 8.55 156.51 8.40C156.76 8.25 156.98 8.08 157.15 7.87C157.32 7.66 157.46 7.43 157.54 7.20C157.63 6.96 157.68 6.71 157.68 6.44C157.68 6.05 157.60 5.68 157.47 5.38C157.35 5.07 157.14 4.80 156.87 4.58C156.60 4.37 156.27 4.20 155.85 4.09C155.43 3.98 154.94 3.92 154.38 3.92L151.54 3.92L150.35 3.92L150.35 4.19C150.35 4.34 150.44 4.42 150.63 4.44L150.77 4.44C150.84 4.44 150.93 4.45 151.07 4.45C151.21 4.45 151.37 4.47 151.54 4.47L151.54 13.26C151.37 13.26 151.21 13.27 151.07 13.27C150.93 13.27 150.84 13.29 150.77 13.29L150.63 13.29C150.44 13.30 150.36 13.38 150.36 13.54L150.36 13.82L151.54 13.82L154.74 13.82C155.27 13.82 155.74 13.76 156.16 13.64C156.58 13.51 156.93 13.34 157.21 13.10C157.49 12.87 157.71 12.59 157.86 12.25C158.02 11.91 158.09 11.54 158.09 11.12C158.09 10.46 157.88 9.93 157.46 9.52ZM152.25 4.48L154.38 4.48C155.26 4.48 155.92 4.66 156.34 5.00C156.76 5.35 156.97 5.84 156.97 6.51C156.97 6.76 156.93 7.03 156.83 7.27C156.73 7.50 156.58 7.71 156.37 7.91C156.16 8.11 155.89 8.26 155.57 8.37C155.25 8.48 154.85 8.55 154.39 8.55L152.25 8.55ZM156.70 12.68C156.25 13.06 155.60 13.24 154.73 13.24L152.25 13.24L152.25 9.07L154.74 9.07C155.16 9.07 155.53 9.11 155.85 9.21C156.17 9.31 156.45 9.45 156.67 9.62C156.90 9.80 157.07 10.00 157.19 10.25C157.30 10.50 157.37 10.79 157.37 11.10C157.37 11.79 157.15 12.31 156.70 12.68ZM172.14 9.91C172.00 9.65 171.81 9.39 171.57 9.21C171.33 9.03 171.08 8.88 170.79 8.75C170.49 8.62 170.17 8.51 169.86 8.41C169.55 8.32 169.25 8.20 168.95 8.11C168.66 7.99 168.39 7.87 168.15 7.71C167.92 7.56 167.73 7.38 167.59 7.15C167.45 6.93 167.37 6.65 167.37 6.31C167.37 6.06 167.43 5.82 167.52 5.59C167.62 5.35 167.76 5.15 167.94 4.97C168.13 4.79 168.35 4.65 168.63 4.55C168.91 4.45 169.22 4.40 169.58 4.40C170.25 4.40 170.87 4.51 171.43 4.75C171.47 5.54 171.50 5.99 171.50 6.06C171.51 6.29 171.60 6.41 171.79 6.41L172.13 6.41L172.13 4.38C171.25 4.00 170.41 3.81 169.58 3.81C169.12 3.81 168.71 3.88 168.35 4.02C167.99 4.16 167.69 4.34 167.45 4.58C167.22 4.82 167.02 5.08 166.89 5.39C166.77 5.70 166.71 6.02 166.71 6.36C166.71 6.78 166.78 7.14 166.92 7.42C167.06 7.70 167.26 7.92 167.50 8.12C167.73 8.32 167.99 8.46 168.28 8.58C168.57 8.71 168.90 8.82 169.20 8.92C169.51 9.02 169.81 9.11 170.11 9.21C170.41 9.31 170.67 9.45 170.91 9.60C171.15 9.76 171.33 9.94 171.47 10.16C171.61 10.39 171.68 10.68 171.68 11.03C171.68 11.35 171.63 11.66 171.51 11.94C171.40 12.22 171.25 12.46 171.04 12.67C170.83 12.88 170.56 13.05 170.25 13.16C169.95 13.29 169.60 13.33 169.20 13.33C168.42 13.33 167.76 13.20 167.23 12.95C167.22 12.75 167.22 12.54 167.20 12.32C167.19 12.10 167.19 11.91 167.17 11.76C167.16 11.61 167.16 11.52 167.16 11.51C167.15 11.28 167.05 11.17 166.85 11.17L166.52 11.17L166.52 13.02L166.52 13.20L166.52 13.38C167.37 13.75 168.25 13.93 169.18 13.93C169.68 13.93 170.13 13.85 170.52 13.69C170.91 13.54 171.25 13.31 171.51 13.05C171.78 12.78 172.00 12.46 172.14 12.10C172.28 11.73 172.35 11.34 172.35 10.92C172.35 10.51 172.28 10.18 172.14 9.91ZM183.43 4.44C183.61 4.42 183.69 4.34 183.69 4.19L183.69 3.91L182.52 3.91L181.80 3.91L180.61 3.91L180.61 4.19C180.61 4.34 180.71 4.42 180.89 4.44L181.03 4.44C181.10 4.44 181.20 4.45 181.34 4.45C181.48 4.45 181.64 4.47 181.80 4.47L181.80 13.26C181.64 13.26 181.48 13.27 181.34 13.27C181.20 13.27 181.10 13.29 181.03 13.29L180.89 13.29C180.71 13.30 180.61 13.38 180.61 13.54L180.61 13.82L181.80 13.82L182.52 13.82L183.69 13.82L183.69 13.54C183.69 13.38 183.61 13.30 183.43 13.29L183.29 13.29C183.22 13.29 183.12 13.27 182.98 13.27C182.84 13.27 182.69 13.26 182.52 13.26L182.52 4.47C182.69 4.47 182.84 4.45 182.98 4.45C183.12 4.45 183.22 4.44 183.29 4.44ZM199.56 3.92L199.36 3.92L192.07 3.92L191.86 3.92L191.76 3.92L191.76 5.96L192.11 5.96C192.30 5.96 192.39 5.85 192.40 5.63C192.40 5.53 192.43 5.17 192.46 4.52L195.36 4.52L195.36 13.26C195.19 13.26 195.05 13.27 194.91 13.27C194.77 13.27 194.66 13.29 194.59 13.29L194.46 13.29C194.28 13.30 194.18 13.38 194.18 13.54L194.18 13.82L195.36 13.82L196.07 13.82L197.26 13.82L197.26 13.54C197.26 13.38 197.16 13.30 196.98 13.29L196.84 13.29C196.77 13.29 196.67 13.27 196.53 13.27C196.39 13.27 196.24 13.26 196.07 13.26L196.07 4.52L198.95 4.52C199.00 5.24 199.01 5.60 199.01 5.63C199.02 5.85 199.12 5.96 199.32 5.96L199.65 5.96L199.65 3.92ZM208.95 3.92L207.76 3.92L207.76 4.19C207.76 4.34 207.86 4.42 208.04 4.44L208.18 4.44C208.25 4.44 208.35 4.45 208.49 4.45C208.63 4.45 208.78 4.47 208.95 4.47L208.95 13.26C208.78 13.26 208.63 13.27 208.49 13.27C208.35 13.27 208.25 13.29 208.18 13.29L208.04 13.29C207.86 13.30 207.77 13.38 207.77 13.54L207.77 13.82L208.95 13.82L214.89 13.82L214.89 13.22L214.89 11.76L214.54 11.76C214.34 11.76 214.26 11.89 214.24 12.11C214.24 12.14 214.23 12.19 214.23 12.29C214.23 12.39 214.23 12.53 214.21 12.74C214.20 12.95 214.19 13.09 214.19 13.22L209.66 13.22L209.66 9.09L213.61 9.09L213.61 8.51L209.66 8.51L209.66 4.51L214.19 4.51C214.21 5.12 214.24 5.50 214.24 5.63C214.26 5.85 214.34 5.96 214.54 5.96L214.89 5.96L214.89 4.51L214.89 3.92ZM229.19 9.91C229.05 9.65 228.86 9.39 228.62 9.21C228.38 9.03 228.13 8.88 227.84 8.75C227.54 8.62 227.22 8.51 226.91 8.41C226.60 8.32 226.30 8.20 226.00 8.11C225.71 7.99 225.44 7.87 225.20 7.71C224.97 7.56 224.78 7.38 224.64 7.15C224.50 6.93 224.42 6.65 224.42 6.31C224.42 6.06 224.48 5.82 224.57 5.59C224.67 5.35 224.81 5.15 224.99 4.97C225.18 4.79 225.40 4.65 225.68 4.55C225.96 4.45 226.27 4.40 226.63 4.40C227.30 4.40 227.92 4.51 228.48 4.75C228.52 5.54 228.55 5.99 228.55 6.06C228.56 6.29 228.65 6.41 228.84 6.41L229.18 6.41L229.18 4.38C228.30 4.00 227.46 3.81 226.63 3.81C226.17 3.81 225.76 3.88 225.40 4.02C225.04 4.16 224.74 4.34 224.50 4.58C224.27 4.82 224.07 5.08 223.94 5.39C223.82 5.70 223.76 6.02 223.76 6.36C223.76 6.78 223.83 7.14 223.97 7.42C224.11 7.70 224.31 7.92 224.55 8.12C224.78 8.32 225.04 8.46 225.33 8.58C225.62 8.71 225.95 8.82 226.25 8.92C226.56 9.02 226.86 9.11 227.16 9.21C227.46 9.31 227.72 9.45 227.96 9.60C228.20 9.76 228.38 9.94 228.52 10.16C228.66 10.39 228.73 10.68 228.73 11.03C228.73 11.35 228.68 11.66 228.56 11.94C228.45 12.22 228.30 12.46 228.09 12.67C227.88 12.88 227.61 13.05 227.30 13.16C227.00 13.29 226.65 13.33 226.25 13.33C225.47 13.33 224.81 13.20 224.28 12.95C224.27 12.75 224.27 12.54 224.25 12.32C224.24 12.10 224.24 11.91 224.22 11.76C224.21 11.61 224.21 11.52 224.21 11.51C224.20 11.28 224.10 11.17 223.90 11.17L223.57 11.17L223.57 13.02L223.57 13.20L223.57 13.38C224.42 13.75 225.30 13.93 226.23 13.93C226.73 13.93 227.18 13.85 227.57 13.69C227.96 13.54 228.30 13.31 228.56 13.05C228.83 12.78 229.05 12.46 229.19 12.10C229.33 11.73 229.40 11.34 229.40 10.92C229.40 10.51 229.33 10.18 229.19 9.91ZM257.33 13.22L256.87 13.17L253.09 3.91L252.38 3.91L248.58 13.17L248.14 13.22C247.95 13.23 247.87 13.33 247.87 13.50L247.87 13.82L248.32 13.82L248.61 13.82L248.86 13.82L248.96 13.82L250.28 13.82L250.28 13.50C250.28 13.31 250.17 13.23 249.96 13.22C249.94 13.22 249.91 13.20 249.87 13.20C249.83 13.20 249.77 13.19 249.68 13.19C249.58 13.19 249.45 13.19 249.31 13.17L250.29 10.75L250.36 10.57L255.09 10.57L255.16 10.75L256.14 13.17C256.00 13.19 255.89 13.19 255.79 13.19C255.70 13.19 255.63 13.20 255.58 13.20C255.54 13.20 255.51 13.22 255.50 13.22C255.29 13.23 255.18 13.31 255.18 13.50L255.18 13.82L256.49 13.82L256.59 13.82L256.86 13.82L257.14 13.82L257.60 13.82L257.60 13.50C257.60 13.33 257.52 13.23 257.33 13.22ZM252.53 5.22C252.56 5.14 252.60 5.04 252.63 4.94C252.66 4.84 252.70 4.75 252.73 4.63C252.76 4.75 252.80 4.84 252.83 4.94C252.85 5.04 252.90 5.12 252.92 5.21L254.88 10.04L250.59 10.04ZM274.67 3.92L274.04 3.92L272.82 3.92L272.82 4.19C272.82 4.34 272.92 4.42 273.10 4.44L273.24 4.44C273.31 4.44 273.42 4.45 273.56 4.45C273.70 4.45 273.87 4.47 274.04 4.47L274.04 12.22C274.04 12.35 274.04 12.49 274.05 12.63L267.64 4.05C267.60 3.99 267.57 3.95 267.53 3.93C267.48 3.92 267.44 3.91 267.37 3.91L267.02 3.91L265.83 3.91L265.83 4.19C265.83 4.34 265.93 4.42 266.11 4.44L266.25 4.44C266.32 4.44 266.42 4.45 266.56 4.45C266.70 4.45 266.85 4.47 267.02 4.47L267.02 13.26C266.85 13.26 266.70 13.27 266.56 13.27C266.42 13.27 266.32 13.29 266.25 13.29L266.11 13.29C265.93 13.30 265.83 13.38 265.83 13.54L265.83 13.82L267.02 13.82L267.64 13.82L268.86 13.82L268.86 13.54C268.86 13.38 268.76 13.30 268.58 13.29L268.44 13.29C268.37 13.29 268.24 13.27 268.10 13.27C267.96 13.27 267.81 13.26 267.64 13.26L267.64 5.49C267.64 5.36 267.64 5.22 267.62 5.08L274.06 13.68C274.13 13.78 274.20 13.82 274.32 13.82L274.67 13.82L274.67 4.47C274.83 4.47 274.97 4.45 275.11 4.45C275.25 4.45 275.37 4.44 275.44 4.44L275.56 4.44C275.74 4.42 275.84 4.34 275.84 4.19L275.84 3.92ZM292.88 6.80C292.66 6.19 292.33 5.68 291.91 5.25C291.49 4.82 291.00 4.48 290.43 4.26C289.86 4.03 289.20 3.92 288.50 3.92L285.07 3.92L283.88 3.92L283.88 4.19C283.88 4.34 283.98 4.42 284.16 4.44L284.30 4.44C284.37 4.44 284.47 4.45 284.61 4.45C284.75 4.45 284.90 4.47 285.07 4.47L285.07 13.26C284.90 13.26 284.75 13.27 284.61 13.27C284.47 13.27 284.37 13.29 284.30 13.29L284.16 13.29C283.98 13.30 283.88 13.38 283.88 13.54L283.88 13.82L285.07 13.82L288.50 13.82C289.20 13.82 289.86 13.71 290.43 13.48C291.00 13.26 291.49 12.92 291.91 12.49C292.33 12.05 292.66 11.54 292.88 10.92C293.10 10.30 293.23 9.63 293.23 8.86C293.23 8.11 293.10 7.42 292.88 6.80ZM292.19 10.72C292.00 11.27 291.75 11.72 291.40 12.10C291.05 12.47 290.63 12.75 290.14 12.95C289.65 13.15 289.10 13.24 288.50 13.24L285.78 13.24L285.78 4.49L288.50 4.49C289.10 4.49 289.65 4.59 290.14 4.79C290.63 4.98 291.05 5.26 291.40 5.64C291.75 6.02 292.00 6.47 292.19 7.01C292.39 7.56 292.49 8.18 292.49 8.86C292.49 9.56 292.39 10.18 292.19 10.72ZM321.19 13.22L320.73 13.17L316.95 3.91L316.23 3.91L312.44 13.17L311.99 13.22C311.81 13.23 311.72 13.33 311.72 13.50L311.72 13.82L312.17 13.82L312.47 13.82L312.72 13.82L312.82 13.82L314.13 13.82L314.13 13.50C314.13 13.31 314.02 13.23 313.81 13.22C313.80 13.22 313.77 13.20 313.73 13.20C313.68 13.20 313.63 13.19 313.53 13.19C313.43 13.19 313.31 13.19 313.17 13.17L314.15 10.75L314.22 10.57L318.95 10.57L319.02 10.75L320.00 13.17C319.86 13.19 319.75 13.19 319.65 13.19C319.55 13.19 319.48 13.20 319.44 13.20C319.40 13.20 319.37 13.22 319.35 13.22C319.14 13.23 319.03 13.31 319.03 13.50L319.03 13.82L320.35 13.82L320.45 13.82L320.71 13.82L320.99 13.82L321.45 13.82L321.45 13.50C321.45 13.33 321.37 13.23 321.19 13.22ZM316.39 5.22C316.41 5.14 316.46 5.04 316.48 4.94C316.51 4.84 316.55 4.75 316.58 4.63C316.61 4.75 316.65 4.84 316.68 4.94C316.71 5.04 316.75 5.12 316.78 5.21L318.74 10.04L314.44 10.04ZM335.92 4.68C335.33 4.17 334.45 3.92 333.28 3.92L330.88 3.92L329.69 3.92L329.69 4.19C329.69 4.34 329.78 4.42 329.97 4.44L330.11 4.44C330.18 4.44 330.27 4.45 330.41 4.45C330.55 4.45 330.71 4.47 330.88 4.47L330.88 13.26C330.71 13.26 330.55 13.27 330.41 13.27C330.27 13.27 330.18 13.29 330.11 13.29L329.97 13.29C329.78 13.30 329.69 13.38 329.69 13.54L329.69 13.82L330.88 13.82L331.59 13.82L332.77 13.82L332.77 13.54C332.77 13.38 332.67 13.30 332.49 13.29L332.36 13.29C332.29 13.29 332.18 13.27 332.04 13.27C331.90 13.27 331.76 13.26 331.59 13.26L331.59 9.83L333.28 9.83C333.83 9.83 334.32 9.74 334.75 9.60C335.19 9.45 335.55 9.25 335.86 8.99C336.17 8.72 336.41 8.41 336.56 8.05C336.73 7.69 336.80 7.29 336.80 6.86C336.80 5.92 336.50 5.18 335.92 4.68ZM335.89 7.81C335.76 8.11 335.58 8.36 335.34 8.57C335.10 8.78 334.81 8.95 334.46 9.07C334.11 9.20 333.72 9.25 333.28 9.25L331.59 9.25L331.59 4.48L333.28 4.48C334.21 4.48 334.91 4.69 335.38 5.10C335.85 5.50 336.08 6.09 336.08 6.85C336.08 7.20 336.01 7.52 335.89 7.81ZM351.22 4.68C350.63 4.17 349.75 3.92 348.59 3.92L346.18 3.92L344.99 3.92L344.99 4.19C344.99 4.34 345.09 4.42 345.27 4.44L345.41 4.44C345.48 4.44 345.58 4.45 345.72 4.45C345.86 4.45 346.01 4.47 346.18 4.47L346.18 13.26C346.01 13.26 345.86 13.27 345.72 13.27C345.58 13.27 345.48 13.29 345.41 13.29L345.27 13.29C345.09 13.30 344.99 13.38 344.99 13.54L344.99 13.82L346.18 13.82L346.89 13.82L348.07 13.82L348.07 13.54C348.07 13.38 347.97 13.30 347.79 13.29L347.66 13.29C347.59 13.29 347.48 13.27 347.34 13.27C347.20 13.27 347.06 13.26 346.89 13.26L346.89 9.83L348.59 9.83C349.13 9.83 349.62 9.74 350.06 9.60C350.49 9.45 350.85 9.25 351.16 8.99C351.47 8.72 351.71 8.41 351.86 8.05C352.03 7.69 352.10 7.29 352.10 6.86C352.10 5.92 351.81 5.18 351.22 4.68ZM351.19 7.81C351.06 8.11 350.88 8.36 350.64 8.57C350.41 8.78 350.11 8.95 349.76 9.07C349.41 9.20 349.02 9.25 348.59 9.25L346.89 9.25L346.89 4.48L348.59 4.48C349.51 4.48 350.21 4.69 350.69 5.10C351.15 5.50 351.39 6.09 351.39 6.85C351.39 7.20 351.32 7.52 351.19 7.81ZM366.02 9.91C365.88 9.65 365.68 9.39 365.44 9.21C365.20 9.03 364.95 8.88 364.66 8.75C364.36 8.62 364.04 8.51 363.73 8.41C363.43 8.32 363.12 8.20 362.82 8.11C362.53 7.99 362.26 7.87 362.03 7.71C361.79 7.56 361.61 7.38 361.47 7.15C361.33 6.93 361.24 6.65 361.24 6.31C361.24 6.06 361.30 5.82 361.40 5.59C361.49 5.35 361.63 5.15 361.82 4.97C362.00 4.79 362.22 4.65 362.50 4.55C362.78 4.45 363.09 4.40 363.45 4.40C364.13 4.40 364.74 4.51 365.30 4.75C365.34 5.54 365.37 5.99 365.37 6.06C365.39 6.29 365.47 6.41 365.67 6.41L366.00 6.41L366.00 4.38C365.12 4.00 364.28 3.81 363.45 3.81C362.99 3.81 362.59 3.88 362.22 4.02C361.86 4.16 361.56 4.34 361.33 4.58C361.09 4.82 360.89 5.08 360.77 5.39C360.64 5.70 360.58 6.02 360.58 6.36C360.58 6.78 360.65 7.14 360.79 7.42C360.93 7.70 361.13 7.92 361.37 8.12C361.61 8.32 361.86 8.46 362.15 8.58C362.45 8.71 362.77 8.82 363.08 8.92C363.38 9.02 363.68 9.11 363.99 9.21C364.28 9.31 364.55 9.45 364.78 9.60C365.02 9.76 365.20 9.94 365.34 10.16C365.48 10.39 365.55 10.68 365.55 11.03C365.55 11.35 365.50 11.66 365.39 11.94C365.27 12.22 365.12 12.46 364.91 12.67C364.70 12.88 364.43 13.05 364.13 13.16C363.82 13.29 363.47 13.33 363.08 13.33C362.29 13.33 361.63 13.20 361.10 12.95C361.09 12.75 361.09 12.54 361.07 12.32C361.06 12.10 361.06 11.91 361.05 11.76C361.03 11.61 361.03 11.52 361.03 11.51C361.02 11.28 360.92 11.17 360.72 11.17L360.39 11.17L360.39 13.02L360.39 13.20L360.39 13.38C361.24 13.75 362.12 13.93 363.05 13.93C363.55 13.93 364 13.85 364.39 13.69C364.78 13.54 365.12 13.31 365.39 13.05C365.65 12.78 365.88 12.46 366.02 12.10C366.16 11.73 366.23 11.34 366.23 10.92C366.23 10.51 366.16 10.18 366.02 9.91Z"></path></g></svg>